<?xml version="1.0" encoding="utf-8"?>
<!-- Generator: Adobe Illustrator 16.0.0, SVG Export Plug-In . SVG Version: 6.00 Build 0)  -->
<!DOCTYPE svg PUBLIC "-//W3C//DTD SVG 1.1//EN" "http://www.w3.org/Graphics/SVG/1.1/DTD/svg11.dtd">
<svg version="1.1" id="Layer_1" xmlns="http://www.w3.org/2000/svg" xmlns:xlink="http://www.w3.org/1999/xlink" x="0px" y="0px"
	 width="60px" height="60px" viewBox="0 0 60 60" enable-background="new 0 0 60 60" xml:space="preserve">
<title>m_pj_Artboard 17</title>
<path fill="#FFFFFF" d="M48.254,44.862c3.447-4.206,5.293-9.499,5.206-14.938c-0.058-6.263-2.585-12.25-7.031-16.662l-1.441,1.508
	c7.699,7.622,8.538,19.777,1.958,28.383v-6.84h-2.083v10.631h10.631v-2.083H48.254z"/>
<path fill="#FFFFFF" d="M15.196,23.627v-10.63H4.557v2.083h6.99c-7.629,9.359-6.934,22.974,1.608,31.508l1.475-1.475
	C6.888,37.348,6.234,25,13.113,16.462v7.165H15.196z"/>
<path fill="#FFFFFF" d="M21.294,50.319c-1.03-0.009-2.013-0.429-2.732-1.167c-0.749-0.738-1.169-1.746-1.167-2.799V13.613
	c-0.013-1.042,0.396-2.045,1.133-2.783c0.738-0.749,1.747-1.169,2.799-1.166h17.344c1.043-0.002,2.041,0.418,2.767,1.166
	c0.749,0.739,1.169,1.748,1.167,2.799v32.757c0.008,1.037-0.4,2.033-1.134,2.766c-0.738,0.75-1.747,1.17-2.8,1.167H21.294z
	 M38.697,11.763h-17.37c-0.498-0.002-0.975,0.196-1.325,0.55c-0.341,0.342-0.531,0.808-0.525,1.291v32.782
	c-0.011,0.493,0.175,0.97,0.517,1.325c0.338,0.337,0.797,0.526,1.274,0.524h17.403c0.495,0,0.969-0.197,1.316-0.55
	c0.342-0.343,0.531-0.808,0.525-1.291V13.613c0.01-0.494-0.18-0.971-0.525-1.325C39.646,11.947,39.182,11.758,38.697,11.763z"/>
</svg>
