<?xml version="1.0" encoding="utf-8"?>
<!-- Generator: Adobe Illustrator 16.0.0, SVG Export Plug-In . SVG Version: 6.00 Build 0)  -->
<!DOCTYPE svg PUBLIC "-//W3C//DTD SVG 1.1//EN" "http://www.w3.org/Graphics/SVG/1.1/DTD/svg11.dtd">
<svg version="1.1" id="Layer_1" xmlns="http://www.w3.org/2000/svg" xmlns:xlink="http://www.w3.org/1999/xlink" x="0px" y="0px"
	 width="60px" height="60px" viewBox="0 0 60 60" enable-background="new 0 0 60 60" xml:space="preserve">
<title>pj_Artboard 14</title>
<path fill="#FFFFFF" d="M50.127,49.091c0.31-1.403,0.468-2.835,0.473-4.272c-0.033-10.117-7.42-18.707-17.418-20.255V12.236l5,5.4
	l4.4-4.091L30,0L17.4,13.563l4.418,4.073l5.036-5.455v12.328C16.822,26.043,9.409,34.668,9.4,44.818
	c0.005,1.438,0.164,2.869,0.473,4.272H6.236v6H53.8v-6H50.127z M15.4,44.818c0-8.063,6.537-14.6,14.6-14.6s14.6,6.537,14.6,14.6
	c-0.006,1.45-0.232,2.891-0.672,4.272H16.073C15.633,47.709,15.406,46.269,15.4,44.818z"/>
</svg>
