<?xml version="1.0" encoding="utf-8"?>
<!-- Generator: Adobe Illustrator 16.0.0, SVG Export Plug-In . SVG Version: 6.00 Build 0)  -->
<!DOCTYPE svg PUBLIC "-//W3C//DTD SVG 1.1//EN" "http://www.w3.org/Graphics/SVG/1.1/DTD/svg11.dtd">
<svg version="1.1" id="Layer_1" xmlns="http://www.w3.org/2000/svg" xmlns:xlink="http://www.w3.org/1999/xlink" x="0px" y="0px"
	 width="60px" height="60px" viewBox="0 0 60 60" enable-background="new 0 0 60 60" xml:space="preserve">
<title>pj_Artboard 13 copy</title>
<rect x="6.2" y="49.637" fill="#FFFFFF" width="47.581" height="6"/>
<path fill="#FFFFFF" d="M30,39.673c11.769-0.01,21.301-9.558,21.292-21.326c-0.001-0.717-0.038-1.434-0.11-2.146l0,0
	c0-0.691-0.182-1.382-0.327-2.055v-0.182c-0.146-0.673-0.31-1.346-0.527-2v-0.182c0-0.236-0.163-0.455-0.255-0.673l0,0V11
	c-0.127-0.346-0.236-0.691-0.381-1.036c-0.719-1.643-1.641-3.188-2.746-4.6l-0.164-0.2l-0.363-0.473l0,0
	c-0.327-0.382-0.654-0.782-1-1.146c0,0,0,0.164,0,0.254c-0.004,2.246-0.507,4.463-1.473,6.491
	c-3.559,7.637-12.633,10.943-20.27,7.385c-3.254-1.516-5.869-4.131-7.385-7.385c-1.007-2.012-1.554-4.223-1.6-6.473
	c0,0,0-0.164,0-0.255c-0.345,0.364-0.673,0.764-1,1.146l0,0L13.491,5c-0.53,0.643-1.021,1.317-1.473,2.018
	c-0.182,0.291-0.327,0.6-0.509,0.891c-0.182,0.291-0.564,1.018-0.8,1.527c0,0.182-0.2,0.345-0.291,0.545
	c-0.091,0.2-0.254,0.691-0.382,1.036v0.109l0,0c0,0.218-0.182,0.455-0.254,0.672v0.182c-0.2,0.654-0.382,1.327-0.527,2v0.091
	c-0.146,0.673-0.236,1.364-0.327,2.055l0,0C7.692,27.831,16.178,38.32,27.882,39.555C28.585,39.629,29.292,39.669,30,39.673z
	 M30,25.127c5.766-0.004,11.283-2.346,15.291-6.491C45,27.086,37.914,33.7,29.463,33.408c-8.041-0.276-14.495-6.731-14.772-14.772
	C18.703,22.786,24.228,25.128,30,25.127z"/>
</svg>
