<?xml version="1.0" encoding="utf-8"?>
<!-- Generator: Adobe Illustrator 16.0.0, SVG Export Plug-In . SVG Version: 6.00 Build 0)  -->
<!DOCTYPE svg PUBLIC "-//W3C//DTD SVG 1.1//EN" "http://www.w3.org/Graphics/SVG/1.1/DTD/svg11.dtd">
<svg version="1.1" id="Layer_1" xmlns="http://www.w3.org/2000/svg" xmlns:xlink="http://www.w3.org/1999/xlink" x="0px" y="0px"
	 width="60px" height="60px" viewBox="0 0 60 60" enable-background="new 0 0 60 60" xml:space="preserve">
<title>pj_Artboard 13 copy 2</title>
<rect x="6.2" y="49.637" fill="#FFFFFF" width="47.581" height="6"/>
<path fill="#FFFFFF" d="M8.818,27.127c0,0.691,0.182,1.382,0.327,2.054v0.091c0.146,0.672,0.309,1.345,0.527,2v0.182
	c0,0.236,0.164,0.454,0.254,0.672l0,0v0.109c0.127,0.346,0.236,0.691,0.382,1.037c0.718,1.643,1.64,3.188,2.746,4.6l0.164,0.199
	l0.364,0.473l0,0c0.327,0.383,0.654,0.782,1,1.146c0,0,0-0.164,0-0.255c0.291-8.45,7.377-15.064,15.827-14.772
	c8.041,0.277,14.495,6.731,14.772,14.772c0,0,0,0.163,0,0.255c0.346-0.364,0.673-0.764,1-1.146l0,0l0.2-0.291
	c0.53-0.643,1.022-1.316,1.473-2.018c0.182-0.291,0.327-0.6,0.509-0.891s0.564-1.019,0.801-1.527c0-0.182,0.199-0.346,0.291-0.545
	c0.09-0.201,0.254-0.691,0.381-1.037v-0.109l0,0c0-0.218,0.182-0.454,0.255-0.672v-0.182c0.2-0.655,0.382-1.328,0.527-2v-0.091
	c0.146-0.672,0.236-1.363,0.327-2.054l0,0c1.238-11.704-7.246-22.194-18.949-23.432C20.292,2.458,9.801,10.941,8.563,22.645
	c-0.157,1.49-0.157,2.992,0,4.482H8.818z M30,9.582c8.346,0.008,15.15,6.692,15.309,15.036c-8.177-8.45-21.655-8.671-30.105-0.494
	c-0.167,0.162-0.332,0.327-0.494,0.494C14.858,16.277,21.657,9.59,30,9.582z"/>
</svg>
