<?xml version="1.0" encoding="utf-8"?>
<!-- Generator: Adobe Illustrator 16.0.0, SVG Export Plug-In . SVG Version: 6.00 Build 0)  -->
<!DOCTYPE svg PUBLIC "-//W3C//DTD SVG 1.1//EN" "http://www.w3.org/Graphics/SVG/1.1/DTD/svg11.dtd">
<svg version="1.1" id="Layer_1" xmlns="http://www.w3.org/2000/svg" xmlns:xlink="http://www.w3.org/1999/xlink" x="0px" y="0px"
	 width="60px" height="60px" viewBox="0 0 60 60" enable-background="new 0 0 60 60" xml:space="preserve">
<title>pj_Artboard 13</title>
<path fill="#FFFFFF" d="M53.8,34.236v-6h-3.636c0.309-1.403,0.467-2.836,0.473-4.272c0-11.377-9.223-20.6-20.601-20.6
	c-11.377,0-20.6,9.223-20.6,20.6C9.441,25.4,9.6,26.833,9.909,28.236H6.273v6h20.909v13.473l-5.018-5.455l-4.455,4.128L30.309,60
	l12.6-13.545l-4.399-4.092l-5.037,5.455V34.236H53.8z M15.4,23.982c0-8.063,6.537-14.6,14.6-14.6s14.6,6.537,14.6,14.6
	c-0.006,1.45-0.232,2.891-0.672,4.272H16.073C15.633,26.873,15.406,25.432,15.4,23.982z"/>
</svg>
