<?xml version="1.0" encoding="utf-8"?>
<!-- Generator: Adobe Illustrator 16.0.0, SVG Export Plug-In . SVG Version: 6.00 Build 0)  -->
<!DOCTYPE svg PUBLIC "-//W3C//DTD SVG 1.1//EN" "http://www.w3.org/Graphics/SVG/1.1/DTD/svg11.dtd">
<svg version="1.1" id="Layer_1" xmlns="http://www.w3.org/2000/svg" xmlns:xlink="http://www.w3.org/1999/xlink" x="0px" y="0px"
	 width="60.003px" height="6.709px" viewBox="0 26.645 60.003 6.709" enable-background="new 0 26.645 60.003 6.709"
	 xml:space="preserve">
<title>pj_Artboard 7</title>
<path fill="#FFFFFF" d="M31.727,28.852c0-0.061,0.023-0.12,0.067-0.163c0.088-0.089,0.231-0.09,0.321-0.001c0,0,0,0.001,0.001,0.001
	c0.044,0.042,0.068,0.102,0.067,0.163c0.001,0.061-0.023,0.12-0.067,0.162c-0.088,0.089-0.231,0.091-0.321,0.003
	C31.751,28.973,31.727,28.914,31.727,28.852"/>
<path fill="#FFFFFF" d="M26.086,28.35v2.195h-0.649V28.28c0-0.411-0.114-0.487-0.346-0.487h-0.373v2.748h-1.023v-0.498h0.373v-2.25
	h-0.205v-0.498h1.423C25.837,27.295,26.086,27.549,26.086,28.35"/>
<path fill="#FFFFFF" d="M26.635,27.295h0.649v2.748h0.871c0.438,0,0.595-0.184,0.595-0.801v-1.449h-0.212v-0.498h0.861v1.922
	c0,0.995-0.378,1.32-1.239,1.32h-1.525V27.295z"/>
<path fill="#FFFFFF" d="M27.475,29.248c0.211-0.303,0.217-0.628,0.217-1.207v-0.249h-0.176v-0.498h0.824v0.811
	c0,0.589-0.151,0.99-0.5,1.4L27.475,29.248z"/>
<polygon fill="#FFFFFF" points="31.604,27.793 31.338,27.793 31.338,30.541 30.689,30.541 30.689,27.793 29.78,27.793 29.78,27.295 
	31.604,27.295 "/>
<polygon fill="#FFFFFF" points="32.385,27.793 32.092,27.793 32.092,27.295 33.033,27.295 33.033,30.541 32.385,30.541 "/>
<path fill="#FFFFFF" d="M34.283,28.447v2.743h-0.649v-2.743H34.283z M34.435,30.302c0.33-0.449,0.433-0.919,0.433-1.563v-0.946
	h-1.25v-0.498h1.898v1.444c0,0.773-0.156,1.286-0.573,1.861L34.435,30.302z"/>
<path fill="#FFFFFF" d="M38.092,28.35v2.195h-1.131v-0.502h0.481v-1.796c0-0.411-0.108-0.454-0.286-0.454l-0.601,2.748h-0.633
	l0.397-1.737l-0.42-1.509h0.596l0.135,0.541l0.125-0.541h0.502C37.815,27.295,38.091,27.544,38.092,28.35"/>
<polygon fill="#FFFFFF" points="2.801,30.505 2.167,30.504 2.17,28.269 1.728,29.852 1.087,29.852 0.651,28.266 0.647,30.502 
	0.012,30.5 0.018,27.245 0.913,27.246 1.409,28.995 1.911,27.249 2.807,27.25 "/>
<path fill="#FFFFFF" d="M4.886,30.01v0.5l-1.249-0.006c-0.136,0.002-0.248-0.107-0.249-0.243c0-0.002,0-0.005,0-0.008l0.005-3.003
	h1.498v0.499H4.044v0.765h0.792v0.488H4.044v1.004L4.886,30.01z"/>
<path fill="#FFFFFF" d="M7.214,30.009v0.505H6.573v-0.506c0-0.538-0.053-0.75-0.253-0.912l-0.272,0.494v0.923H5.395l0.006-3.254
	h0.652v1.211l0.583-1.211h0.7l-0.7,1.264C7.026,28.739,7.216,29.168,7.214,30.009"/>
<path fill="#FFFFFF" d="M9.651,29.622c0,0.64-0.371,0.927-1.016,0.927c-0.646-0.002-1.009-0.29-1.008-0.931l0.004-2.36h0.651
	L8.278,29.52c0,0.364,0.069,0.53,0.357,0.53S8.999,29.888,9,29.523l0.004-2.263h0.652L9.651,29.622z"/>
<path fill="#FFFFFF" d="M11.483,28.324c0-0.407-0.107-0.56-0.395-0.56h-0.25l-0.003,2.257h0.25c0.288,0,0.396-0.157,0.397-0.58
	L11.483,28.324z M12.134,28.324v1.118c0,0.792-0.285,1.078-1.049,1.078h-0.901l0.006-3.254h0.9c0.765,0,1.046,0.285,1.046,1.06"/>
<path fill="#FFFFFF" d="M14.155,30.026v0.5h-1.248c-0.136,0.002-0.248-0.106-0.25-0.242c0-0.002,0-0.004,0-0.007l0.005-3.006h1.497
	v0.499h-0.847v0.765h0.792v0.488h-0.792v1.004L14.155,30.026z"/>
<path fill="#FFFFFF" d="M14.487,29.782V29.31h0.605v0.414c0,0.223,0.086,0.347,0.314,0.348c0.228,0.001,0.282-0.113,0.283-0.325
	c0.001-0.212-0.048-0.326-0.443-0.674c-0.642-0.561-0.717-0.75-0.717-1.124c0-0.446,0.321-0.699,0.869-0.699
	s0.878,0.256,0.878,0.701v0.271h-0.605V28c0.013-0.134-0.085-0.253-0.22-0.267c-0.017-0.001-0.034-0.001-0.051,0
	c-0.185,0-0.271,0.081-0.271,0.244s0.108,0.277,0.515,0.641c0.617,0.56,0.65,0.712,0.649,1.167c0,0.489-0.302,0.77-0.88,0.769
	c-0.592,0-0.922-0.284-0.921-0.773"/>
<polygon fill="#FFFFFF" points="18.768,27.278 18.761,30.533 18.11,30.532 18.113,29.051 17.348,29.05 17.345,30.531 16.694,30.53 
	16.7,27.274 17.351,27.275 17.349,28.561 18.114,28.562 18.116,27.277 "/>
<path fill="#FFFFFF" d="M20.846,30.038v0.499h-1.248c-0.136,0.002-0.247-0.106-0.249-0.242c0-0.003,0-0.005,0-0.008l0.005-3.006
	h1.498v0.499h-0.847v0.765h0.792v0.488h-0.792v1.004L20.846,30.038z"/>
<polygon fill="#FFFFFF" points="22.994,27.785 22.408,27.783 22.403,30.54 21.752,30.539 21.756,27.783 21.166,27.781 
	21.166,27.282 22.995,27.285 "/>
<path fill="#FFFFFF" d="M55.066,28.874L55.066,28.874c0-0.25,0-0.501,0-0.752c0-0.076,0-0.139-0.104-0.142
	c-0.328-0.01-0.652,0-0.961,0.134c-0.268,0.106-0.449,0.357-0.467,0.645c-0.043,0.411,0.057,0.798,0.22,1.171
	c0.032,0.048,0.086,0.079,0.144,0.083c0.244,0.008,0.49,0.005,0.735,0c0.302,0,0.419-0.115,0.429-0.424c0.006-0.239,0-0.479,0-0.717
	 M58.329,30.013c0.596,0,0.884-0.211,0.988-0.741c0.028-0.149,0.04-0.302,0.032-0.454c-0.02-0.494-0.341-0.841-0.775-0.853
	c-0.502-0.014-0.862,0.283-0.881,0.793c0.002,0.296,0.045,0.59,0.131,0.874c0.102,0.383,0.118,0.378,0.505,0.378 M49.008,27.54
	c0.563,0,1.107-0.044,1.636,0.117c0.593,0.18,0.908,0.605,0.92,1.237c0.005,0.245,0.007,0.49,0.007,0.736
	c0,0.257,0.068,0.337,0.328,0.378c0.035,0.005,0.07,0.006,0.105,0.005h1.094c-0.049-0.172-0.101-0.327-0.137-0.485
	c-0.092-0.404-0.121-0.811,0.043-1.203c0.207-0.499,0.621-0.751,1.127-0.8c0.479-0.046,0.966-0.008,1.449-0.005
	c0.115,0,0.104,0.086,0.104,0.162c0,0.643,0,1.285,0,1.928c0,0.283,0.08,0.388,0.36,0.398c0.408,0.014,0.816,0.004,1.235,0.004
	c-0.065-0.232-0.146-0.454-0.188-0.676c-0.063-0.353-0.075-0.71,0.076-1.05c0.247-0.566,0.723-0.792,1.301-0.82
	c1.292-0.061,1.702,1.02,1.475,1.972c-0.169,0.707-0.719,1.122-1.42,1.103c-0.735-0.02-1.473-0.006-2.209,0
	c-0.275,0-0.541-0.017-0.738-0.283c-0.307,0.325-0.694,0.281-1.072,0.281c-0.73,0-1.461,0-2.195,0c-0.312,0-0.624,0.012-0.851-0.274
	c-0.247,0.244-0.543,0.277-0.854,0.274c-0.613-0.007-1.671-0.007-2.283,0c-0.143,0-0.194-0.032-0.191-0.183
	c0.008-0.342,0-0.342,0.346-0.342c0.529,0,1.508,0,2.043,0c0.299,0,0.423-0.106,0.429-0.406c0.005-0.28-0.007-0.56-0.036-0.838
	c-0.021-0.33-0.271-0.6-0.598-0.646c-0.345-0.056-0.693-0.089-1.041-0.097c-0.26-0.014-0.261,0-0.261-0.271V27.54"/>
<path fill="#FFFFFF" d="M40.898,29.699c0-0.577,0-1.095-0.004-1.613c-0.011-0.046-0.045-0.083-0.089-0.098
	c-0.324-0.013-0.653-0.056-0.966,0.085s-0.489,0.428-0.469,0.803c0.021,0.375,0.209,0.631,0.565,0.707
	C40.239,29.648,40.555,29.659,40.898,29.699 M41.526,27.556c0,0.081,0,0.151,0,0.219c0,0.596,0,1.192,0.011,1.788
	c0.006,0.33,0.156,0.454,0.488,0.454c0.392,0,0.783,0,1.175,0h0.187v-1.419c0-0.454,0-0.446,0.453-0.444
	c0.122,0,0.162,0.036,0.16,0.159c-0.006,0.497,0,0.994,0,1.491v0.2h1.229v-1.846c0.193,0,0.361-0.008,0.529,0.007
	c0.036,0,0.09,0.093,0.091,0.143c0.007,0.497,0.003,0.994,0.003,1.49v0.205h1.158v-2.454h0.613v2.98
	c-0.066,0-0.128,0.008-0.189,0.008c-1.854,0-3.706,0-5.559,0c-0.312,0-0.605-0.058-0.812-0.327
	c-0.031-0.042-0.123-0.051-0.188-0.055c-0.361-0.018-0.727,0-1.083-0.05c-0.724-0.098-1.091-0.63-1.046-1.346
	c0.043-0.699,0.467-1.107,1.159-1.235c0.538-0.1,1.069-0.027,1.624,0.033"/>
<path fill="#FFFFFF" d="M39.721,26.875c0-0.061,0.023-0.12,0.066-0.163c0.041-0.044,0.1-0.069,0.16-0.068
	c0.061,0,0.12,0.024,0.163,0.068c0.044,0.043,0.069,0.102,0.069,0.163c0.002,0.061-0.023,0.12-0.066,0.162
	c-0.044,0.043-0.103,0.067-0.164,0.067c-0.061,0-0.117-0.023-0.16-0.067c-0.043-0.042-0.067-0.101-0.066-0.162"/>
<path fill="#FFFFFF" d="M40.529,26.875c0-0.061,0.023-0.12,0.066-0.163c0.089-0.089,0.232-0.089,0.322-0.001c0,0,0,0,0,0.001
	c0.045,0.043,0.068,0.102,0.068,0.164c0.001,0.061-0.023,0.12-0.068,0.162c-0.088,0.089-0.23,0.091-0.32,0.003
	C40.553,26.998,40.529,26.938,40.529,26.875"/>
<path fill="#FFFFFF" d="M53.742,26.875c-0.001-0.061,0.023-0.12,0.066-0.163c0.041-0.044,0.099-0.069,0.159-0.068
	c0.062,0,0.12,0.024,0.163,0.068c0.044,0.043,0.068,0.102,0.067,0.164c0.001,0.061-0.022,0.12-0.067,0.162
	c-0.043,0.043-0.102,0.067-0.163,0.066c-0.06,0.001-0.118-0.023-0.159-0.066C53.765,26.996,53.74,26.937,53.742,26.875"/>
<path fill="#FFFFFF" d="M54.551,26.875c0-0.061,0.023-0.12,0.066-0.163c0.089-0.089,0.232-0.089,0.321-0.001
	c0.001,0,0.001,0,0.001,0.001c0.045,0.042,0.071,0.101,0.072,0.163c0,0.061-0.023,0.12-0.068,0.162
	c-0.088,0.089-0.23,0.091-0.32,0.003c-0.045-0.043-0.068-0.103-0.068-0.165"/>
<path fill="#FFFFFF" d="M0.372,32.643H0.67l-0.151-0.487L0.372,32.643z M0.372,31.947h0.333l0.364,1.129H0.803l-0.076-0.25h-0.41
	l-0.077,0.25H0L0.372,31.947z"/>
<path fill="#FFFFFF" d="M1.507,33.055v-0.195c0.045,0.018,0.094,0.027,0.142,0.026c0.096,0,0.159-0.048,0.159-0.179V31.95h0.257
	v0.761c0,0.255-0.139,0.379-0.371,0.379C1.63,33.094,1.566,33.082,1.507,33.055"/>
<path fill="#FFFFFF" d="M2.819,32.573c-0.008-0.125-0.071-0.185-0.18-0.185c-0.103,0-0.187,0.082-0.189,0.185H2.819z M2.213,32.672
	V32.66c-0.011-0.226,0.163-0.418,0.389-0.429c0.012-0.001,0.024-0.001,0.036-0.001c0.213,0,0.402,0.125,0.402,0.42v0.062H2.446
	c0.006,0.137,0.08,0.216,0.205,0.216c0.106,0,0.158-0.046,0.172-0.114h0.216c-0.027,0.178-0.169,0.277-0.395,0.277
	C2.396,33.092,2.214,32.936,2.213,32.672"/>
<path fill="#FFFFFF" d="M3.191,32.25h0.227v0.158c0.043-0.107,0.15-0.177,0.266-0.17v0.213c-0.168,0-0.266,0.053-0.266,0.211v0.414
	H3.191V32.25z"/>
<path fill="#FFFFFF" d="M3.829,32.781v-0.529h0.227v0.5c0,0.112,0.045,0.166,0.143,0.166c0.091,0.005,0.168-0.064,0.172-0.155
	c0-0.009,0-0.018,0-0.026v-0.484h0.227v0.824H4.371v-0.131c-0.05,0.097-0.153,0.154-0.262,0.146
	C3.948,33.092,3.828,32.998,3.829,32.781"/>
<path fill="#FFFFFF" d="M4.74,32.816h0.213c0.009,0.075,0.045,0.116,0.145,0.116c0.1,0,0.129-0.033,0.129-0.091
	c0-0.057-0.048-0.08-0.167-0.097c-0.219-0.034-0.303-0.097-0.303-0.257c0-0.162,0.157-0.258,0.326-0.258
	c0.183,0,0.32,0.066,0.34,0.256H5.213c-0.013-0.068-0.051-0.1-0.129-0.1s-0.117,0.035-0.117,0.085s0.04,0.075,0.159,0.09
	c0.207,0.03,0.32,0.082,0.32,0.259c0,0.178-0.129,0.271-0.347,0.271C4.882,33.092,4.748,32.994,4.74,32.816"/>
<path fill="#FFFFFF" d="M6.06,32.787v-0.07H5.971c-0.133,0-0.21,0.029-0.21,0.117c0,0.059,0.037,0.099,0.12,0.099
	c0.101,0,0.178-0.056,0.178-0.147 M5.537,32.846c0-0.192,0.176-0.266,0.429-0.266h0.093v-0.033c0-0.098-0.03-0.151-0.134-0.151
	c-0.068-0.009-0.13,0.038-0.14,0.106c0,0.003-0.001,0.006-0.001,0.01H5.569c0.014-0.195,0.168-0.282,0.371-0.282
	s0.345,0.082,0.345,0.303v0.544H6.062v-0.101c-0.057,0.079-0.151,0.124-0.249,0.116C5.662,33.092,5.538,33.017,5.537,32.846"/>
<rect x="6.487" y="31.876" fill="#FFFFFF" width="0.227" height="1.198"/>
<path fill="#FFFFFF" d="M7.475,32.573c-0.007-0.125-0.071-0.185-0.179-0.185c-0.103,0-0.187,0.082-0.189,0.185H7.475z M6.87,32.672
	V32.66c-0.011-0.226,0.163-0.418,0.389-0.429c0.012-0.001,0.024-0.001,0.036-0.001c0.212,0,0.402,0.125,0.402,0.42v0.062H7.103
	c0.006,0.137,0.08,0.216,0.205,0.216c0.106,0,0.158-0.046,0.172-0.114h0.215c-0.026,0.178-0.168,0.277-0.394,0.277
	C7.052,33.092,6.871,32.936,6.87,32.672"/>
<path fill="#FFFFFF" d="M7.847,32.25h0.227v0.127c0.05-0.092,0.147-0.148,0.252-0.146c0.099-0.006,0.191,0.053,0.227,0.145
	c0.062-0.092,0.167-0.146,0.278-0.145c0.151,0,0.271,0.097,0.271,0.316v0.529H8.875v-0.504c0-0.106-0.047-0.152-0.129-0.152
	c-0.083-0.005-0.155,0.059-0.161,0.143c0,0.008,0,0.018,0.001,0.026v0.487H8.358v-0.504c0-0.106-0.049-0.152-0.129-0.152
	c-0.083-0.005-0.155,0.059-0.161,0.143c0,0.008,0,0.018,0.001,0.026v0.487H7.842L7.847,32.25z"/>
<rect x="9.286" y="32.541" fill="#FFFFFF" width="0.403" height="0.182"/>
<rect x="9.811" y="31.947" fill="#FFFFFF" width="0.257" height="1.127"/>
<path fill="#FFFFFF" d="M10.296,32.25h0.227v0.131c0.052-0.098,0.156-0.157,0.268-0.151c0.163,0,0.278,0.098,0.278,0.319v0.527
	h-0.227v-0.492c0-0.111-0.044-0.165-0.146-0.165c-0.09-0.005-0.167,0.063-0.172,0.153c0,0.01,0,0.02,0.001,0.028v0.476h-0.227
	L10.296,32.25z"/>
<path fill="#FFFFFF" d="M11.206,32.816h0.213c0.009,0.075,0.045,0.116,0.145,0.116c0.1,0,0.129-0.033,0.129-0.091
	c0-0.057-0.048-0.08-0.167-0.097c-0.219-0.034-0.303-0.097-0.303-0.257c0-0.162,0.157-0.258,0.326-0.258
	c0.183,0,0.32,0.066,0.34,0.256H11.68c-0.013-0.068-0.051-0.1-0.129-0.1s-0.117,0.035-0.117,0.085s0.04,0.075,0.159,0.09
	c0.207,0.03,0.32,0.082,0.32,0.259c0,0.178-0.129,0.271-0.347,0.271S11.214,32.994,11.206,32.816"/>
<path fill="#FFFFFF" d="M12.677,32.668v-0.012c0-0.168-0.082-0.25-0.197-0.25c-0.115,0-0.202,0.084-0.202,0.25v0.012
	c0,0.166,0.076,0.246,0.204,0.246S12.677,32.829,12.677,32.668 M12.057,32.251h0.227v0.13c0.054-0.095,0.155-0.152,0.263-0.152
	c0.202,0,0.359,0.152,0.359,0.422v0.014c0,0.272-0.151,0.426-0.359,0.426c-0.108,0.006-0.209-0.051-0.263-0.144v0.407h-0.227V32.251
	z"/>
<path fill="#FFFFFF" d="M13.295,32.25v0.826h-0.227V32.25H13.295z M13.051,32.018c-0.003-0.072,0.053-0.133,0.125-0.136
	s0.132,0.053,0.135,0.124c0.003,0.072-0.053,0.133-0.125,0.136c-0.002,0-0.004,0-0.006,0c-0.069,0.003-0.127-0.052-0.129-0.12
	C13.051,32.02,13.051,32.019,13.051,32.018"/>
<path fill="#FFFFFF" d="M13.504,32.25h0.227v0.158c0.043-0.108,0.151-0.177,0.267-0.17v0.213c-0.168,0-0.266,0.053-0.266,0.211
	v0.414h-0.227L13.504,32.25z"/>
<path fill="#FFFFFF" d="M14.687,32.573c-0.007-0.125-0.071-0.185-0.179-0.185c-0.103,0-0.187,0.082-0.189,0.185H14.687z
	 M14.081,32.672V32.66c-0.011-0.226,0.163-0.418,0.389-0.429c0.012-0.001,0.023-0.001,0.035-0.001c0.213,0,0.402,0.125,0.402,0.42
	v0.062h-0.595c0.006,0.137,0.08,0.216,0.205,0.216c0.106,0,0.158-0.046,0.172-0.114h0.218c-0.026,0.178-0.169,0.277-0.394,0.277
	C14.264,33.092,14.082,32.936,14.081,32.672"/>
<path fill="#FFFFFF" d="M15.639,32.666v-0.013c0-0.164-0.076-0.247-0.197-0.247c-0.122,0-0.199,0.087-0.199,0.251v0.013
	c0,0.164,0.076,0.244,0.192,0.244C15.551,32.914,15.639,32.834,15.639,32.666 M15.01,32.674v-0.012c0-0.271,0.156-0.432,0.362-0.432
	c0.107-0.007,0.209,0.049,0.26,0.143v-0.497h0.227v1.2h-0.227v-0.139c-0.055,0.095-0.156,0.152-0.265,0.152
	c-0.201,0-0.358-0.145-0.358-0.418"/>
<path fill="#FFFFFF" d="M16.375,32.518v-0.013c-0.016-0.302,0.216-0.56,0.518-0.575c0.014,0,0.028-0.001,0.042,0
	c0.271,0,0.473,0.132,0.5,0.41h-0.262c-0.003-0.119-0.102-0.213-0.221-0.209c-0.005,0-0.011,0-0.016,0
	c-0.179,0-0.292,0.139-0.292,0.373v0.013c0,0.233,0.107,0.369,0.293,0.369c0.13,0.013,0.246-0.082,0.258-0.212
	c0-0.001,0-0.002,0-0.004h0.25c-0.028,0.279-0.227,0.423-0.506,0.423C16.571,33.093,16.374,32.866,16.375,32.518"/>
<path fill="#FFFFFF" d="M17.591,32.25h0.227v0.158c0.043-0.107,0.15-0.177,0.267-0.17v0.213c-0.169,0-0.267,0.053-0.267,0.211v0.414
	h-0.227V32.25z"/>
<path fill="#FFFFFF" d="M18.774,32.573c-0.008-0.125-0.071-0.185-0.18-0.185c-0.103,0-0.187,0.082-0.189,0.185H18.774z
	 M18.169,32.672V32.66c-0.011-0.226,0.163-0.418,0.389-0.429c0.012-0.001,0.023-0.001,0.035-0.001c0.212,0,0.401,0.125,0.401,0.42
	v0.062h-0.595c0.006,0.137,0.081,0.216,0.205,0.216c0.106,0,0.158-0.046,0.172-0.114h0.216c-0.026,0.178-0.168,0.277-0.394,0.277
	C18.35,33.092,18.168,32.936,18.169,32.672"/>
<path fill="#FFFFFF" d="M19.623,32.787v-0.07h-0.089c-0.132,0-0.209,0.029-0.209,0.117c0,0.059,0.036,0.099,0.12,0.099
	c0.101,0,0.178-0.056,0.178-0.147 M19.1,32.846c0-0.192,0.176-0.266,0.429-0.266h0.093v-0.033c0-0.098-0.03-0.151-0.134-0.151
	c-0.068-0.009-0.13,0.038-0.14,0.106c0,0.003-0.001,0.006-0.001,0.01h-0.216c0.014-0.195,0.169-0.282,0.371-0.282
	c0.202,0,0.345,0.082,0.345,0.303v0.544h-0.223v-0.101c-0.057,0.079-0.151,0.124-0.249,0.116C19.225,33.092,19.1,33.017,19.1,32.846
	"/>
<path fill="#FFFFFF" d="M20.077,32.83v-0.418h-0.106V32.25h0.106v-0.178h0.227v0.178h0.173v0.162h-0.173v0.398
	c0,0.066,0.033,0.098,0.091,0.098c0.03,0,0.06-0.006,0.087-0.017v0.177c-0.045,0.016-0.091,0.023-0.139,0.022
	C20.171,33.091,20.078,33.002,20.077,32.83"/>
<path fill="#FFFFFF" d="M20.87,32.25v0.826h-0.227V32.25H20.87z M20.626,32.018c-0.003-0.072,0.053-0.133,0.125-0.136
	s0.132,0.053,0.135,0.124c0.003,0.072-0.053,0.133-0.125,0.136c-0.002,0-0.004,0-0.006,0c-0.069,0.003-0.127-0.052-0.129-0.12
	C20.626,32.02,20.626,32.019,20.626,32.018"/>
<path fill="#FFFFFF" d="M21.666,32.668v-0.011c0-0.157-0.076-0.252-0.202-0.252c-0.126,0-0.202,0.091-0.202,0.249v0.013
	c0,0.157,0.076,0.252,0.202,0.252S21.667,32.824,21.666,32.668 M21.03,32.668v-0.012c-0.001-0.24,0.192-0.436,0.432-0.438
	c0.24-0.001,0.436,0.192,0.437,0.432v0.014c0.001,0.24-0.192,0.436-0.432,0.437C21.227,33.102,21.031,32.908,21.03,32.668"/>
<path fill="#FFFFFF" d="M22.051,32.25h0.227v0.131c0.052-0.098,0.157-0.157,0.268-0.151c0.163,0,0.278,0.098,0.278,0.319v0.527
	h-0.227v-0.492c0-0.111-0.044-0.165-0.146-0.165c-0.09-0.005-0.167,0.063-0.172,0.153c0,0.01,0,0.02,0.001,0.028v0.476h-0.227
	L22.051,32.25z"/>
</svg>
