<?xml version="1.0" encoding="utf-8"?>
<!-- Generator: Adobe Illustrator 16.0.0, SVG Export Plug-In . SVG Version: 6.00 Build 0)  -->
<!DOCTYPE svg PUBLIC "-//W3C//DTD SVG 1.1//EN" "http://www.w3.org/Graphics/SVG/1.1/DTD/svg11.dtd">
<svg version="1.1" id="Layer_1" xmlns="http://www.w3.org/2000/svg" xmlns:xlink="http://www.w3.org/1999/xlink" x="0px" y="0px"
	 width="60px" height="60px" viewBox="0 0 60 60" enable-background="new 0 0 60 60" xml:space="preserve">
<title>pj_Artboard 4 copy</title>
<path fill="#FFFFFF" d="M50.575,41.2c-0.015,5.158-4.192,9.336-9.351,9.35h-22.5c-5.158-0.014-9.336-4.191-9.35-9.35V18.7
	c0.068-5.148,4.276-9.278,9.425-9.25h22.5c5.158,0.014,9.337,4.191,9.351,9.35L50.575,41.2z M41.2,5H18.7
	C11.123,5.068,5.013,11.223,5,18.8v22.5c0.068,7.577,6.223,13.687,13.8,13.7h22.5C48.883,54.945,55,48.783,55,41.2V18.7
	C54.945,11.118,48.783,5,41.2,5"/>
<path fill="#FFFFFF" d="M30,38.45c-4.667,0-8.45-3.783-8.45-8.45s3.783-8.45,8.45-8.45s8.45,3.783,8.45,8.45S34.667,38.45,30,38.45
	L30,38.45 M30,17.125c-7.111,0-12.875,5.764-12.875,12.875c0,7.111,5.764,12.875,12.875,12.875c7.111,0,12.875-5.764,12.875-12.875
	l0,0C42.861,22.895,37.105,17.139,30,17.125"/>
<path fill="#FFFFFF" d="M43.425,13.35c-1.795,0.002-3.248,1.459-3.246,3.254s1.459,3.248,3.254,3.246
	c1.795-0.002,3.248-1.459,3.246-3.254c-0.001-0.862-0.344-1.688-0.954-2.296C45.115,13.691,44.287,13.349,43.425,13.35"/>
</svg>
