<?xml version="1.0" encoding="utf-8"?>
<!-- Generator: Adobe Illustrator 16.0.0, SVG Export Plug-In . SVG Version: 6.00 Build 0)  -->
<!DOCTYPE svg PUBLIC "-//W3C//DTD SVG 1.1//EN" "http://www.w3.org/Graphics/SVG/1.1/DTD/svg11.dtd">
<svg version="1.1" id="Layer_1" xmlns="http://www.w3.org/2000/svg" xmlns:xlink="http://www.w3.org/1999/xlink" x="0px" y="0px"
	 width="60px" height="60px" viewBox="0 0 60 60" enable-background="new 0 0 60 60" xml:space="preserve">
<title>pj_Artboard 4 copy 2</title>
<path fill="#FFFFFF" d="M22.25,39.3V19.475l19.075,10l-19.075,10 M58.95,15.975C58.315,12.8,55.715,10.391,52.5,10
	C45.021,9.307,37.51,9.032,30,9.175C22.491,9.032,14.979,9.308,7.5,10c-3.17,0.371-5.759,2.708-6.45,5.825
	C0.176,20.497-0.176,25.25,0,30c-0.175,4.75,0.177,9.504,1.05,14.175C1.741,47.291,4.33,49.629,7.5,50
	c7.479,0.693,14.99,0.969,22.5,0.825c7.51,0.144,15.021-0.132,22.5-0.825c3.202-0.371,5.809-2.746,6.475-5.9
	C59.834,39.452,60.178,34.724,60,30c0.184-4.749-0.16-9.502-1.025-14.175"/>
</svg>
