<?xml version="1.0" encoding="utf-8"?>
<!-- Generator: Adobe Illustrator 16.0.0, SVG Export Plug-In . SVG Version: 6.00 Build 0)  -->
<!DOCTYPE svg PUBLIC "-//W3C//DTD SVG 1.1//EN" "http://www.w3.org/Graphics/SVG/1.1/DTD/svg11.dtd">
<svg version="1.1" id="Layer_1" xmlns="http://www.w3.org/2000/svg" xmlns:xlink="http://www.w3.org/1999/xlink" x="0px" y="0px"
	 width="60px" height="60px" viewBox="0 0 60 60" enable-background="new 0 0 60 60" xml:space="preserve">
<title>pj_Artboard 4 copy 3</title>
<path fill="#FFFFFF" d="M60,11.45c-2.249,0.991-4.634,1.64-7.075,1.925c2.565-1.537,4.485-3.953,5.4-6.8
	C55.902,8,53.257,9.005,50.5,9.55C45.871,4.578,38.088,4.3,33.116,8.929c-3.232,3.01-4.604,7.521-3.591,11.821
	c-9.879-0.493-19.088-5.143-25.35-12.8C0.924,13.562,2.6,20.734,8,24.325c-1.93-0.079-3.813-0.61-5.5-1.55v0.15
	C2.485,28.767,6.581,33.812,12.3,35c-1.06,0.283-2.152,0.427-3.25,0.425c-0.78,0.002-1.559-0.073-2.325-0.225
	c1.615,5.009,6.237,8.437,11.5,8.524c-4.36,3.411-9.739,5.26-15.275,5.25C1.964,48.963,0.979,48.896,0,48.775
	c5.634,3.607,12.185,5.525,18.875,5.524c19.178,0.153,34.848-15.271,35-34.448c0.002-0.184,0.002-0.368,0-0.552v-1.6
	C56.274,16,58.35,13.883,60,11.45"/>
</svg>
