<?xml version="1.0" encoding="utf-8"?>
<!-- Generator: Adobe Illustrator 16.0.0, SVG Export Plug-In . SVG Version: 6.00 Build 0)  -->
<!DOCTYPE svg PUBLIC "-//W3C//DTD SVG 1.1//EN" "http://www.w3.org/Graphics/SVG/1.1/DTD/svg11.dtd">
<svg version="1.1" id="Layer_1" xmlns="http://www.w3.org/2000/svg" xmlns:xlink="http://www.w3.org/1999/xlink" x="0px" y="0px"
	 width="60px" height="60px" viewBox="0 0 60 60" enable-background="new 0 0 60 60" xml:space="preserve">
<title>jp_restart_Artboard 1 copy</title>
<g>
	<path fill="#FFFFFF" d="M34.125,4.125c-14.062,0-25.5,11.25-25.875,25.125l-4.875-4.875L0,27.562l10.875,10.875L21.75,27.562
		l-3.562-3.188l-5.25,5.25C13.125,18,22.875,8.625,34.5,9c11.625,0.188,21,9.938,20.812,21.562S45.375,51.375,33.75,51.188
		C28.312,51,23.062,48.938,19.125,45l-3.375,3.375c10.125,10.125,26.438,10.125,36.562,0s10.125-26.438,0-36.562
		C47.625,6.75,41.062,4.125,34.125,4.125z"/>
	<rect fill="none" width="60" height="60"/>
</g>
</svg>
