solid ascii
  facet normal -6.941356e-01 0.000000e+00 7.198443e-01
    outer loop
      vertex   2.055648e+01 3.905732e+01 7.000000e+00
      vertex   2.388981e+01 3.905732e+01 1.021429e+01
      vertex   2.055648e+01 5.518635e+01 7.000000e+00
    endloop
  endfacet
  facet normal -6.941356e-01 0.000000e+00 7.198443e-01
    outer loop
      vertex   2.055648e+01 5.518635e+01 7.000000e+00
      vertex   2.388981e+01 3.905732e+01 1.021429e+01
      vertex   2.388981e+01 5.518635e+01 1.021429e+01
    endloop
  endfacet
  facet normal -1.000000e+00 0.000000e+00 0.000000e+00
    outer loop
      vertex   2.388981e+01 3.905732e+01 1.021429e+01
      vertex   2.388981e+01 4.712184e+01 4.107143e+01
      vertex   2.388981e+01 5.518635e+01 1.021429e+01
    endloop
  endfacet
  facet normal -1.000000e+00 0.000000e+00 0.000000e+00
    outer loop
      vertex   2.388981e+01 3.905732e+01 1.021429e+01
      vertex   2.388981e+01 4.693459e+01 4.108230e+01
      vertex   2.388981e+01 4.712184e+01 4.107143e+01
    endloop
  endfacet
  facet normal -1.000000e+00 0.000000e+00 0.000000e+00
    outer loop
      vertex   2.388981e+01 3.905732e+01 1.021429e+01
      vertex   2.388981e+01 4.674987e+01 4.111475e+01
      vertex   2.388981e+01 4.693459e+01 4.108230e+01
    endloop
  endfacet
  facet normal -1.000000e+00 0.000000e+00 0.000000e+00
    outer loop
      vertex   2.388981e+01 3.905732e+01 1.021429e+01
      vertex   2.388981e+01 4.657019e+01 4.116835e+01
      vertex   2.388981e+01 4.674987e+01 4.111475e+01
    endloop
  endfacet
  facet normal -1.000000e+00 0.000000e+00 0.000000e+00
    outer loop
      vertex   2.388981e+01 3.905732e+01 1.021429e+01
      vertex   2.388981e+01 4.639797e+01 4.124238e+01
      vertex   2.388981e+01 4.657019e+01 4.116835e+01
    endloop
  endfacet
  facet normal -1.000000e+00 0.000000e+00 0.000000e+00
    outer loop
      vertex   2.388981e+01 3.905732e+01 1.021429e+01
      vertex   2.388981e+01 4.623553e+01 4.133582e+01
      vertex   2.388981e+01 4.639797e+01 4.124238e+01
    endloop
  endfacet
  facet normal -1.000000e+00 0.000000e+00 0.000000e+00
    outer loop
      vertex   2.388981e+01 3.905732e+01 1.021429e+01
      vertex   2.388981e+01 4.608508e+01 4.144743e+01
      vertex   2.388981e+01 4.623553e+01 4.133582e+01
    endloop
  endfacet
  facet normal -1.000000e+00 0.000000e+00 0.000000e+00
    outer loop
      vertex   2.388981e+01 3.905732e+01 1.021429e+01
      vertex   2.388981e+01 4.594865e+01 4.157568e+01
      vertex   2.388981e+01 4.608508e+01 4.144743e+01
    endloop
  endfacet
  facet normal -1.000000e+00 0.000000e+00 0.000000e+00
    outer loop
      vertex   2.388981e+01 3.905732e+01 1.021429e+01
      vertex   2.388981e+01 4.582809e+01 4.171885e+01
      vertex   2.388981e+01 4.594865e+01 4.157568e+01
    endloop
  endfacet
  facet normal -1.000000e+00 0.000000e+00 0.000000e+00
    outer loop
      vertex   2.388981e+01 3.905732e+01 1.021429e+01
      vertex   2.388981e+01 4.572502e+01 4.187500e+01
      vertex   2.388981e+01 4.582809e+01 4.171885e+01
    endloop
  endfacet
  facet normal -1.000000e+00 0.000000e+00 0.000000e+00
    outer loop
      vertex   2.388981e+01 3.905732e+01 1.021429e+01
      vertex   2.388981e+01 4.564084e+01 4.204201e+01
      vertex   2.388981e+01 4.572502e+01 4.187500e+01
    endloop
  endfacet
  facet normal -1.000000e+00 0.000000e+00 0.000000e+00
    outer loop
      vertex   2.388981e+01 3.905732e+01 1.021429e+01
      vertex   2.388981e+01 4.557669e+01 4.221764e+01
      vertex   2.388981e+01 4.564084e+01 4.204201e+01
    endloop
  endfacet
  facet normal -1.000000e+00 0.000000e+00 0.000000e+00
    outer loop
      vertex   2.388981e+01 3.905732e+01 1.021429e+01
      vertex   2.388981e+01 3.712184e+01 4.750000e+01
      vertex   2.388981e+01 4.557669e+01 4.221764e+01
    endloop
  endfacet
  facet normal -1.000000e+00 -0.000000e+00 0.000000e+00
    outer loop
      vertex   2.388981e+01 3.905732e+01 1.021429e+01
      vertex   2.388981e+01 3.712184e+01 2.500000e+00
      vertex   2.388981e+01 3.712184e+01 4.750000e+01
    endloop
  endfacet
  facet normal -1.000000e+00 -0.000000e+00 -0.000000e+00
    outer loop
      vertex   2.388981e+01 3.905732e+01 1.021429e+01
      vertex   2.388981e+01 3.905732e+01 2.500000e+00
      vertex   2.388981e+01 3.712184e+01 2.500000e+00
    endloop
  endfacet
  facet normal -1.000000e+00 -0.000000e+00 0.000000e+00
    outer loop
      vertex   2.388981e+01 5.518635e+01 4.750000e+01
      vertex   2.388981e+01 4.693459e+01 4.427485e+01
      vertex   2.388981e+01 3.712184e+01 4.750000e+01
    endloop
  endfacet
  facet normal -1.000000e+00 0.000000e+00 0.000000e+00
    outer loop
      vertex   2.388981e+01 5.518635e+01 4.750000e+01
      vertex   2.388981e+01 4.712184e+01 4.428571e+01
      vertex   2.388981e+01 4.693459e+01 4.427485e+01
    endloop
  endfacet
  facet normal -1.000000e+00 -0.000000e+00 0.000000e+00
    outer loop
      vertex   2.388981e+01 5.518635e+01 4.750000e+01
      vertex   2.388981e+01 4.730908e+01 4.427485e+01
      vertex   2.388981e+01 4.712184e+01 4.428571e+01
    endloop
  endfacet
  facet normal -1.000000e+00 -0.000000e+00 0.000000e+00
    outer loop
      vertex   2.388981e+01 5.518635e+01 4.750000e+01
      vertex   2.388981e+01 4.749380e+01 4.424239e+01
      vertex   2.388981e+01 4.730908e+01 4.427485e+01
    endloop
  endfacet
  facet normal -1.000000e+00 -0.000000e+00 0.000000e+00
    outer loop
      vertex   2.388981e+01 5.518635e+01 4.750000e+01
      vertex   2.388981e+01 4.767348e+01 4.418879e+01
      vertex   2.388981e+01 4.749380e+01 4.424239e+01
    endloop
  endfacet
  facet normal -1.000000e+00 -0.000000e+00 0.000000e+00
    outer loop
      vertex   2.388981e+01 5.518635e+01 4.750000e+01
      vertex   2.388981e+01 4.784570e+01 4.411477e+01
      vertex   2.388981e+01 4.767348e+01 4.418879e+01
    endloop
  endfacet
  facet normal -1.000000e+00 -0.000000e+00 0.000000e+00
    outer loop
      vertex   2.388981e+01 5.518635e+01 4.750000e+01
      vertex   2.388981e+01 4.800814e+01 4.402132e+01
      vertex   2.388981e+01 4.784570e+01 4.411477e+01
    endloop
  endfacet
  facet normal -1.000000e+00 -0.000000e+00 0.000000e+00
    outer loop
      vertex   2.388981e+01 5.518635e+01 4.750000e+01
      vertex   2.388981e+01 4.815859e+01 4.390971e+01
      vertex   2.388981e+01 4.800814e+01 4.402132e+01
    endloop
  endfacet
  facet normal -1.000000e+00 -0.000000e+00 0.000000e+00
    outer loop
      vertex   2.388981e+01 5.518635e+01 4.750000e+01
      vertex   2.388981e+01 4.829502e+01 4.378146e+01
      vertex   2.388981e+01 4.815859e+01 4.390971e+01
    endloop
  endfacet
  facet normal -1.000000e+00 -0.000000e+00 0.000000e+00
    outer loop
      vertex   2.388981e+01 5.518635e+01 4.750000e+01
      vertex   2.388981e+01 4.841558e+01 4.363829e+01
      vertex   2.388981e+01 4.829502e+01 4.378146e+01
    endloop
  endfacet
  facet normal -1.000000e+00 -0.000000e+00 0.000000e+00
    outer loop
      vertex   2.388981e+01 5.518635e+01 4.750000e+01
      vertex   2.388981e+01 4.851865e+01 4.348214e+01
      vertex   2.388981e+01 4.841558e+01 4.363829e+01
    endloop
  endfacet
  facet normal -1.000000e+00 -0.000000e+00 0.000000e+00
    outer loop
      vertex   2.388981e+01 5.518635e+01 4.750000e+01
      vertex   2.388981e+01 4.860283e+01 4.331513e+01
      vertex   2.388981e+01 4.851865e+01 4.348214e+01
    endloop
  endfacet
  facet normal -1.000000e+00 -0.000000e+00 0.000000e+00
    outer loop
      vertex   2.388981e+01 5.518635e+01 4.750000e+01
      vertex   2.388981e+01 4.866698e+01 4.313951e+01
      vertex   2.388981e+01 4.860283e+01 4.331513e+01
    endloop
  endfacet
  facet normal -1.000000e+00 -0.000000e+00 0.000000e+00
    outer loop
      vertex   2.388981e+01 5.518635e+01 4.750000e+01
      vertex   2.388981e+01 4.871023e+01 4.295765e+01
      vertex   2.388981e+01 4.866698e+01 4.313951e+01
    endloop
  endfacet
  facet normal -1.000000e+00 -0.000000e+00 0.000000e+00
    outer loop
      vertex   2.388981e+01 5.518635e+01 4.750000e+01
      vertex   2.388981e+01 4.873201e+01 4.277202e+01
      vertex   2.388981e+01 4.871023e+01 4.295765e+01
    endloop
  endfacet
  facet normal -1.000000e+00 -0.000000e+00 0.000000e+00
    outer loop
      vertex   2.388981e+01 5.518635e+01 4.750000e+01
      vertex   2.388981e+01 4.873201e+01 4.258512e+01
      vertex   2.388981e+01 4.873201e+01 4.277202e+01
    endloop
  endfacet
  facet normal -1.000000e+00 -0.000000e+00 0.000000e+00
    outer loop
      vertex   2.388981e+01 5.518635e+01 4.750000e+01
      vertex   2.388981e+01 4.871023e+01 4.239949e+01
      vertex   2.388981e+01 4.873201e+01 4.258512e+01
    endloop
  endfacet
  facet normal -1.000000e+00 -0.000000e+00 0.000000e+00
    outer loop
      vertex   2.388981e+01 5.518635e+01 4.750000e+01
      vertex   2.388981e+01 4.866698e+01 4.221764e+01
      vertex   2.388981e+01 4.871023e+01 4.239949e+01
    endloop
  endfacet
  facet normal -1.000000e+00 -0.000000e+00 0.000000e+00
    outer loop
      vertex   2.388981e+01 5.518635e+01 4.750000e+01
      vertex   2.388981e+01 4.860283e+01 4.204201e+01
      vertex   2.388981e+01 4.866698e+01 4.221764e+01
    endloop
  endfacet
  facet normal -1.000000e+00 -0.000000e+00 -0.000000e+00
    outer loop
      vertex   2.388981e+01 5.518635e+01 4.750000e+01
      vertex   2.388981e+01 5.518635e+01 1.021429e+01
      vertex   2.388981e+01 4.860283e+01 4.204201e+01
    endloop
  endfacet
  facet normal -1.000000e+00 -0.000000e+00 -0.000000e+00
    outer loop
      vertex   2.388981e+01 4.860283e+01 4.204201e+01
      vertex   2.388981e+01 5.518635e+01 1.021429e+01
      vertex   2.388981e+01 4.851865e+01 4.187500e+01
    endloop
  endfacet
  facet normal -1.000000e+00 -0.000000e+00 -0.000000e+00
    outer loop
      vertex   2.388981e+01 4.851865e+01 4.187500e+01
      vertex   2.388981e+01 5.518635e+01 1.021429e+01
      vertex   2.388981e+01 4.841558e+01 4.171885e+01
    endloop
  endfacet
  facet normal -1.000000e+00 -0.000000e+00 -0.000000e+00
    outer loop
      vertex   2.388981e+01 4.841558e+01 4.171885e+01
      vertex   2.388981e+01 5.518635e+01 1.021429e+01
      vertex   2.388981e+01 4.829502e+01 4.157568e+01
    endloop
  endfacet
  facet normal -1.000000e+00 -0.000000e+00 -0.000000e+00
    outer loop
      vertex   2.388981e+01 4.829502e+01 4.157568e+01
      vertex   2.388981e+01 5.518635e+01 1.021429e+01
      vertex   2.388981e+01 4.815859e+01 4.144743e+01
    endloop
  endfacet
  facet normal -1.000000e+00 -0.000000e+00 -0.000000e+00
    outer loop
      vertex   2.388981e+01 4.815859e+01 4.144743e+01
      vertex   2.388981e+01 5.518635e+01 1.021429e+01
      vertex   2.388981e+01 4.800814e+01 4.133582e+01
    endloop
  endfacet
  facet normal -1.000000e+00 -0.000000e+00 -0.000000e+00
    outer loop
      vertex   2.388981e+01 4.800814e+01 4.133582e+01
      vertex   2.388981e+01 5.518635e+01 1.021429e+01
      vertex   2.388981e+01 4.784570e+01 4.124238e+01
    endloop
  endfacet
  facet normal -1.000000e+00 -0.000000e+00 -0.000000e+00
    outer loop
      vertex   2.388981e+01 4.784570e+01 4.124238e+01
      vertex   2.388981e+01 5.518635e+01 1.021429e+01
      vertex   2.388981e+01 4.767348e+01 4.116835e+01
    endloop
  endfacet
  facet normal -1.000000e+00 -0.000000e+00 -0.000000e+00
    outer loop
      vertex   2.388981e+01 4.767348e+01 4.116835e+01
      vertex   2.388981e+01 5.518635e+01 1.021429e+01
      vertex   2.388981e+01 4.749380e+01 4.111475e+01
    endloop
  endfacet
  facet normal -1.000000e+00 -0.000000e+00 -0.000000e+00
    outer loop
      vertex   2.388981e+01 4.749380e+01 4.111475e+01
      vertex   2.388981e+01 5.518635e+01 1.021429e+01
      vertex   2.388981e+01 4.730908e+01 4.108230e+01
    endloop
  endfacet
  facet normal -1.000000e+00 -0.000000e+00 -0.000000e+00
    outer loop
      vertex   2.388981e+01 4.730908e+01 4.108230e+01
      vertex   2.388981e+01 5.518635e+01 1.021429e+01
      vertex   2.388981e+01 4.712184e+01 4.107143e+01
    endloop
  endfacet
  facet normal -1.000000e+00 -0.000000e+00 0.000000e+00
    outer loop
      vertex   2.388981e+01 4.693459e+01 4.427485e+01
      vertex   2.388981e+01 4.674987e+01 4.424239e+01
      vertex   2.388981e+01 3.712184e+01 4.750000e+01
    endloop
  endfacet
  facet normal -1.000000e+00 0.000000e+00 -0.000000e+00
    outer loop
      vertex   2.388981e+01 3.712184e+01 4.750000e+01
      vertex   2.388981e+01 4.674987e+01 4.424239e+01
      vertex   2.388981e+01 4.657019e+01 4.418879e+01
    endloop
  endfacet
  facet normal -1.000000e+00 0.000000e+00 0.000000e+00
    outer loop
      vertex   2.388981e+01 4.639797e+01 4.411477e+01
      vertex   2.388981e+01 3.712184e+01 4.750000e+01
      vertex   2.388981e+01 4.657019e+01 4.418879e+01
    endloop
  endfacet
  facet normal -1.000000e+00 -0.000000e+00 0.000000e+00
    outer loop
      vertex   2.388981e+01 4.639797e+01 4.411477e+01
      vertex   2.388981e+01 4.623553e+01 4.402132e+01
      vertex   2.388981e+01 3.712184e+01 4.750000e+01
    endloop
  endfacet
  facet normal -1.000000e+00 0.000000e+00 -0.000000e+00
    outer loop
      vertex   2.388981e+01 3.712184e+01 4.750000e+01
      vertex   2.388981e+01 4.623553e+01 4.402132e+01
      vertex   2.388981e+01 4.608508e+01 4.390971e+01
    endloop
  endfacet
  facet normal -1.000000e+00 0.000000e+00 0.000000e+00
    outer loop
      vertex   2.388981e+01 4.594865e+01 4.378146e+01
      vertex   2.388981e+01 3.712184e+01 4.750000e+01
      vertex   2.388981e+01 4.608508e+01 4.390971e+01
    endloop
  endfacet
  facet normal -1.000000e+00 -0.000000e+00 0.000000e+00
    outer loop
      vertex   2.388981e+01 4.594865e+01 4.378146e+01
      vertex   2.388981e+01 4.582809e+01 4.363829e+01
      vertex   2.388981e+01 3.712184e+01 4.750000e+01
    endloop
  endfacet
  facet normal -1.000000e+00 0.000000e+00 -0.000000e+00
    outer loop
      vertex   2.388981e+01 3.712184e+01 4.750000e+01
      vertex   2.388981e+01 4.582809e+01 4.363829e+01
      vertex   2.388981e+01 4.572502e+01 4.348214e+01
    endloop
  endfacet
  facet normal -1.000000e+00 0.000000e+00 0.000000e+00
    outer loop
      vertex   2.388981e+01 4.564084e+01 4.331513e+01
      vertex   2.388981e+01 3.712184e+01 4.750000e+01
      vertex   2.388981e+01 4.572502e+01 4.348214e+01
    endloop
  endfacet
  facet normal -1.000000e+00 -0.000000e+00 0.000000e+00
    outer loop
      vertex   2.388981e+01 4.564084e+01 4.331513e+01
      vertex   2.388981e+01 4.557669e+01 4.313951e+01
      vertex   2.388981e+01 3.712184e+01 4.750000e+01
    endloop
  endfacet
  facet normal -1.000000e+00 0.000000e+00 -0.000000e+00
    outer loop
      vertex   2.388981e+01 3.712184e+01 4.750000e+01
      vertex   2.388981e+01 4.557669e+01 4.313951e+01
      vertex   2.388981e+01 4.553344e+01 4.295765e+01
    endloop
  endfacet
  facet normal -1.000000e+00 0.000000e+00 0.000000e+00
    outer loop
      vertex   2.388981e+01 4.551166e+01 4.277202e+01
      vertex   2.388981e+01 3.712184e+01 4.750000e+01
      vertex   2.388981e+01 4.553344e+01 4.295765e+01
    endloop
  endfacet
  facet normal -1.000000e+00 -0.000000e+00 -0.000000e+00
    outer loop
      vertex   2.388981e+01 4.551166e+01 4.277202e+01
      vertex   2.388981e+01 4.551166e+01 4.258512e+01
      vertex   2.388981e+01 3.712184e+01 4.750000e+01
    endloop
  endfacet
  facet normal -1.000000e+00 0.000000e+00 0.000000e+00
    outer loop
      vertex   2.388981e+01 3.712184e+01 4.750000e+01
      vertex   2.388981e+01 4.551166e+01 4.258512e+01
      vertex   2.388981e+01 4.553344e+01 4.239949e+01
    endloop
  endfacet
  facet normal -1.000000e+00 0.000000e+00 0.000000e+00
    outer loop
      vertex   2.388981e+01 4.557669e+01 4.221764e+01
      vertex   2.388981e+01 3.712184e+01 4.750000e+01
      vertex   2.388981e+01 4.553344e+01 4.239949e+01
    endloop
  endfacet
  facet normal 6.941356e-01 0.000000e+00 7.198443e-01
    outer loop
      vertex   3.255648e+01 5.518635e+01 7.000000e+00
      vertex   2.922314e+01 5.518635e+01 1.021429e+01
      vertex   3.255648e+01 3.905732e+01 7.000000e+00
    endloop
  endfacet
  facet normal 6.941356e-01 0.000000e+00 7.198443e-01
    outer loop
      vertex   3.255648e+01 3.905732e+01 7.000000e+00
      vertex   2.922314e+01 5.518635e+01 1.021429e+01
      vertex   2.922314e+01 3.905732e+01 1.021429e+01
    endloop
  endfacet
  facet normal 1.000000e+00 0.000000e+00 0.000000e+00
    outer loop
      vertex   2.922314e+01 5.518635e+01 1.021429e+01
      vertex   2.922314e+01 4.712184e+01 4.107143e+01
      vertex   2.922314e+01 3.905732e+01 1.021429e+01
    endloop
  endfacet
  facet normal 1.000000e+00 0.000000e+00 0.000000e+00
    outer loop
      vertex   2.922314e+01 5.518635e+01 1.021429e+01
      vertex   2.922314e+01 4.730908e+01 4.108230e+01
      vertex   2.922314e+01 4.712184e+01 4.107143e+01
    endloop
  endfacet
  facet normal 1.000000e+00 0.000000e+00 0.000000e+00
    outer loop
      vertex   2.922314e+01 5.518635e+01 1.021429e+01
      vertex   2.922314e+01 4.749380e+01 4.111475e+01
      vertex   2.922314e+01 4.730908e+01 4.108230e+01
    endloop
  endfacet
  facet normal 1.000000e+00 0.000000e+00 0.000000e+00
    outer loop
      vertex   2.922314e+01 5.518635e+01 1.021429e+01
      vertex   2.922314e+01 4.767348e+01 4.116835e+01
      vertex   2.922314e+01 4.749380e+01 4.111475e+01
    endloop
  endfacet
  facet normal 1.000000e+00 0.000000e+00 0.000000e+00
    outer loop
      vertex   2.922314e+01 5.518635e+01 1.021429e+01
      vertex   2.922314e+01 4.784570e+01 4.124238e+01
      vertex   2.922314e+01 4.767348e+01 4.116835e+01
    endloop
  endfacet
  facet normal 1.000000e+00 0.000000e+00 0.000000e+00
    outer loop
      vertex   2.922314e+01 5.518635e+01 1.021429e+01
      vertex   2.922314e+01 4.800814e+01 4.133582e+01
      vertex   2.922314e+01 4.784570e+01 4.124238e+01
    endloop
  endfacet
  facet normal 1.000000e+00 0.000000e+00 0.000000e+00
    outer loop
      vertex   2.922314e+01 5.518635e+01 1.021429e+01
      vertex   2.922314e+01 4.815859e+01 4.144743e+01
      vertex   2.922314e+01 4.800814e+01 4.133582e+01
    endloop
  endfacet
  facet normal 1.000000e+00 0.000000e+00 0.000000e+00
    outer loop
      vertex   2.922314e+01 5.518635e+01 1.021429e+01
      vertex   2.922314e+01 4.829502e+01 4.157568e+01
      vertex   2.922314e+01 4.815859e+01 4.144743e+01
    endloop
  endfacet
  facet normal 1.000000e+00 0.000000e+00 0.000000e+00
    outer loop
      vertex   2.922314e+01 5.518635e+01 1.021429e+01
      vertex   2.922314e+01 4.841558e+01 4.171885e+01
      vertex   2.922314e+01 4.829502e+01 4.157568e+01
    endloop
  endfacet
  facet normal 1.000000e+00 0.000000e+00 0.000000e+00
    outer loop
      vertex   2.922314e+01 5.518635e+01 1.021429e+01
      vertex   2.922314e+01 4.851865e+01 4.187500e+01
      vertex   2.922314e+01 4.841558e+01 4.171885e+01
    endloop
  endfacet
  facet normal 1.000000e+00 0.000000e+00 0.000000e+00
    outer loop
      vertex   2.922314e+01 5.518635e+01 1.021429e+01
      vertex   2.922314e+01 4.860283e+01 4.204201e+01
      vertex   2.922314e+01 4.851865e+01 4.187500e+01
    endloop
  endfacet
  facet normal 1.000000e+00 0.000000e+00 0.000000e+00
    outer loop
      vertex   2.922314e+01 5.518635e+01 1.021429e+01
      vertex   2.922314e+01 4.866698e+01 4.221764e+01
      vertex   2.922314e+01 4.860283e+01 4.204201e+01
    endloop
  endfacet
  facet normal 1.000000e+00 0.000000e+00 -0.000000e+00
    outer loop
      vertex   2.922314e+01 5.518635e+01 1.021429e+01
      vertex   2.922314e+01 5.712184e+01 4.750000e+01
      vertex   2.922314e+01 4.866698e+01 4.221764e+01
    endloop
  endfacet
  facet normal 1.000000e+00 -0.000000e+00 0.000000e+00
    outer loop
      vertex   2.922314e+01 5.518635e+01 1.021429e+01
      vertex   2.922314e+01 5.712184e+01 2.500000e+00
      vertex   2.922314e+01 5.712184e+01 4.750000e+01
    endloop
  endfacet
  facet normal 1.000000e+00 -0.000000e+00 0.000000e+00
    outer loop
      vertex   2.922314e+01 5.518635e+01 1.021429e+01
      vertex   2.922314e+01 5.518635e+01 2.500000e+00
      vertex   2.922314e+01 5.712184e+01 2.500000e+00
    endloop
  endfacet
  facet normal 1.000000e+00 -0.000000e+00 0.000000e+00
    outer loop
      vertex   2.922314e+01 3.905732e+01 4.750000e+01
      vertex   2.922314e+01 4.730908e+01 4.427485e+01
      vertex   2.922314e+01 5.712184e+01 4.750000e+01
    endloop
  endfacet
  facet normal 1.000000e+00 0.000000e+00 0.000000e+00
    outer loop
      vertex   2.922314e+01 3.905732e+01 4.750000e+01
      vertex   2.922314e+01 4.712184e+01 4.428571e+01
      vertex   2.922314e+01 4.730908e+01 4.427485e+01
    endloop
  endfacet
  facet normal 1.000000e+00 -0.000000e+00 0.000000e+00
    outer loop
      vertex   2.922314e+01 3.905732e+01 4.750000e+01
      vertex   2.922314e+01 4.693459e+01 4.427485e+01
      vertex   2.922314e+01 4.712184e+01 4.428571e+01
    endloop
  endfacet
  facet normal 1.000000e+00 -0.000000e+00 0.000000e+00
    outer loop
      vertex   2.922314e+01 3.905732e+01 4.750000e+01
      vertex   2.922314e+01 4.674987e+01 4.424239e+01
      vertex   2.922314e+01 4.693459e+01 4.427485e+01
    endloop
  endfacet
  facet normal 1.000000e+00 -0.000000e+00 0.000000e+00
    outer loop
      vertex   2.922314e+01 3.905732e+01 4.750000e+01
      vertex   2.922314e+01 4.657019e+01 4.418879e+01
      vertex   2.922314e+01 4.674987e+01 4.424239e+01
    endloop
  endfacet
  facet normal 1.000000e+00 -0.000000e+00 0.000000e+00
    outer loop
      vertex   2.922314e+01 3.905732e+01 4.750000e+01
      vertex   2.922314e+01 4.639797e+01 4.411477e+01
      vertex   2.922314e+01 4.657019e+01 4.418879e+01
    endloop
  endfacet
  facet normal 1.000000e+00 -0.000000e+00 0.000000e+00
    outer loop
      vertex   2.922314e+01 3.905732e+01 4.750000e+01
      vertex   2.922314e+01 4.623553e+01 4.402132e+01
      vertex   2.922314e+01 4.639797e+01 4.411477e+01
    endloop
  endfacet
  facet normal 1.000000e+00 -0.000000e+00 0.000000e+00
    outer loop
      vertex   2.922314e+01 3.905732e+01 4.750000e+01
      vertex   2.922314e+01 4.608508e+01 4.390971e+01
      vertex   2.922314e+01 4.623553e+01 4.402132e+01
    endloop
  endfacet
  facet normal 1.000000e+00 -0.000000e+00 0.000000e+00
    outer loop
      vertex   2.922314e+01 3.905732e+01 4.750000e+01
      vertex   2.922314e+01 4.594865e+01 4.378146e+01
      vertex   2.922314e+01 4.608508e+01 4.390971e+01
    endloop
  endfacet
  facet normal 1.000000e+00 -0.000000e+00 0.000000e+00
    outer loop
      vertex   2.922314e+01 3.905732e+01 4.750000e+01
      vertex   2.922314e+01 4.582809e+01 4.363829e+01
      vertex   2.922314e+01 4.594865e+01 4.378146e+01
    endloop
  endfacet
  facet normal 1.000000e+00 -0.000000e+00 0.000000e+00
    outer loop
      vertex   2.922314e+01 3.905732e+01 4.750000e+01
      vertex   2.922314e+01 4.572502e+01 4.348214e+01
      vertex   2.922314e+01 4.582809e+01 4.363829e+01
    endloop
  endfacet
  facet normal 1.000000e+00 -0.000000e+00 0.000000e+00
    outer loop
      vertex   2.922314e+01 3.905732e+01 4.750000e+01
      vertex   2.922314e+01 4.564084e+01 4.331513e+01
      vertex   2.922314e+01 4.572502e+01 4.348214e+01
    endloop
  endfacet
  facet normal 1.000000e+00 -0.000000e+00 0.000000e+00
    outer loop
      vertex   2.922314e+01 3.905732e+01 4.750000e+01
      vertex   2.922314e+01 4.557669e+01 4.313951e+01
      vertex   2.922314e+01 4.564084e+01 4.331513e+01
    endloop
  endfacet
  facet normal 1.000000e+00 -0.000000e+00 0.000000e+00
    outer loop
      vertex   2.922314e+01 3.905732e+01 4.750000e+01
      vertex   2.922314e+01 4.553344e+01 4.295765e+01
      vertex   2.922314e+01 4.557669e+01 4.313951e+01
    endloop
  endfacet
  facet normal 1.000000e+00 -0.000000e+00 0.000000e+00
    outer loop
      vertex   2.922314e+01 3.905732e+01 4.750000e+01
      vertex   2.922314e+01 4.551166e+01 4.277202e+01
      vertex   2.922314e+01 4.553344e+01 4.295765e+01
    endloop
  endfacet
  facet normal 1.000000e+00 -0.000000e+00 0.000000e+00
    outer loop
      vertex   2.922314e+01 3.905732e+01 4.750000e+01
      vertex   2.922314e+01 4.551166e+01 4.258512e+01
      vertex   2.922314e+01 4.551166e+01 4.277202e+01
    endloop
  endfacet
  facet normal 1.000000e+00 -0.000000e+00 -0.000000e+00
    outer loop
      vertex   2.922314e+01 3.905732e+01 4.750000e+01
      vertex   2.922314e+01 4.553344e+01 4.239949e+01
      vertex   2.922314e+01 4.551166e+01 4.258512e+01
    endloop
  endfacet
  facet normal 1.000000e+00 -0.000000e+00 -0.000000e+00
    outer loop
      vertex   2.922314e+01 3.905732e+01 4.750000e+01
      vertex   2.922314e+01 4.557669e+01 4.221764e+01
      vertex   2.922314e+01 4.553344e+01 4.239949e+01
    endloop
  endfacet
  facet normal 1.000000e+00 -0.000000e+00 -0.000000e+00
    outer loop
      vertex   2.922314e+01 3.905732e+01 4.750000e+01
      vertex   2.922314e+01 4.564084e+01 4.204201e+01
      vertex   2.922314e+01 4.557669e+01 4.221764e+01
    endloop
  endfacet
  facet normal 1.000000e+00 -0.000000e+00 0.000000e+00
    outer loop
      vertex   2.922314e+01 3.905732e+01 4.750000e+01
      vertex   2.922314e+01 3.905732e+01 1.021429e+01
      vertex   2.922314e+01 4.564084e+01 4.204201e+01
    endloop
  endfacet
  facet normal 1.000000e+00 -0.000000e+00 0.000000e+00
    outer loop
      vertex   2.922314e+01 4.564084e+01 4.204201e+01
      vertex   2.922314e+01 3.905732e+01 1.021429e+01
      vertex   2.922314e+01 4.572502e+01 4.187500e+01
    endloop
  endfacet
  facet normal 1.000000e+00 -0.000000e+00 0.000000e+00
    outer loop
      vertex   2.922314e+01 4.572502e+01 4.187500e+01
      vertex   2.922314e+01 3.905732e+01 1.021429e+01
      vertex   2.922314e+01 4.582809e+01 4.171885e+01
    endloop
  endfacet
  facet normal 1.000000e+00 -0.000000e+00 0.000000e+00
    outer loop
      vertex   2.922314e+01 4.582809e+01 4.171885e+01
      vertex   2.922314e+01 3.905732e+01 1.021429e+01
      vertex   2.922314e+01 4.594865e+01 4.157568e+01
    endloop
  endfacet
  facet normal 1.000000e+00 -0.000000e+00 0.000000e+00
    outer loop
      vertex   2.922314e+01 4.594865e+01 4.157568e+01
      vertex   2.922314e+01 3.905732e+01 1.021429e+01
      vertex   2.922314e+01 4.608508e+01 4.144743e+01
    endloop
  endfacet
  facet normal 1.000000e+00 -0.000000e+00 0.000000e+00
    outer loop
      vertex   2.922314e+01 4.608508e+01 4.144743e+01
      vertex   2.922314e+01 3.905732e+01 1.021429e+01
      vertex   2.922314e+01 4.623553e+01 4.133582e+01
    endloop
  endfacet
  facet normal 1.000000e+00 -0.000000e+00 0.000000e+00
    outer loop
      vertex   2.922314e+01 4.623553e+01 4.133582e+01
      vertex   2.922314e+01 3.905732e+01 1.021429e+01
      vertex   2.922314e+01 4.639797e+01 4.124238e+01
    endloop
  endfacet
  facet normal 1.000000e+00 -0.000000e+00 0.000000e+00
    outer loop
      vertex   2.922314e+01 4.639797e+01 4.124238e+01
      vertex   2.922314e+01 3.905732e+01 1.021429e+01
      vertex   2.922314e+01 4.657019e+01 4.116835e+01
    endloop
  endfacet
  facet normal 1.000000e+00 -0.000000e+00 0.000000e+00
    outer loop
      vertex   2.922314e+01 4.657019e+01 4.116835e+01
      vertex   2.922314e+01 3.905732e+01 1.021429e+01
      vertex   2.922314e+01 4.674987e+01 4.111475e+01
    endloop
  endfacet
  facet normal 1.000000e+00 -0.000000e+00 0.000000e+00
    outer loop
      vertex   2.922314e+01 4.674987e+01 4.111475e+01
      vertex   2.922314e+01 3.905732e+01 1.021429e+01
      vertex   2.922314e+01 4.693459e+01 4.108230e+01
    endloop
  endfacet
  facet normal 1.000000e+00 -0.000000e+00 0.000000e+00
    outer loop
      vertex   2.922314e+01 4.693459e+01 4.108230e+01
      vertex   2.922314e+01 3.905732e+01 1.021429e+01
      vertex   2.922314e+01 4.712184e+01 4.107143e+01
    endloop
  endfacet
  facet normal 1.000000e+00 -0.000000e+00 0.000000e+00
    outer loop
      vertex   2.922314e+01 4.730908e+01 4.427485e+01
      vertex   2.922314e+01 4.749380e+01 4.424239e+01
      vertex   2.922314e+01 5.712184e+01 4.750000e+01
    endloop
  endfacet
  facet normal 1.000000e+00 0.000000e+00 0.000000e+00
    outer loop
      vertex   2.922314e+01 5.712184e+01 4.750000e+01
      vertex   2.922314e+01 4.749380e+01 4.424239e+01
      vertex   2.922314e+01 4.767348e+01 4.418879e+01
    endloop
  endfacet
  facet normal 1.000000e+00 0.000000e+00 -0.000000e+00
    outer loop
      vertex   2.922314e+01 4.784570e+01 4.411477e+01
      vertex   2.922314e+01 5.712184e+01 4.750000e+01
      vertex   2.922314e+01 4.767348e+01 4.418879e+01
    endloop
  endfacet
  facet normal 1.000000e+00 -0.000000e+00 0.000000e+00
    outer loop
      vertex   2.922314e+01 4.784570e+01 4.411477e+01
      vertex   2.922314e+01 4.800814e+01 4.402132e+01
      vertex   2.922314e+01 5.712184e+01 4.750000e+01
    endloop
  endfacet
  facet normal 1.000000e+00 0.000000e+00 0.000000e+00
    outer loop
      vertex   2.922314e+01 5.712184e+01 4.750000e+01
      vertex   2.922314e+01 4.800814e+01 4.402132e+01
      vertex   2.922314e+01 4.815859e+01 4.390971e+01
    endloop
  endfacet
  facet normal 1.000000e+00 0.000000e+00 -0.000000e+00
    outer loop
      vertex   2.922314e+01 4.829502e+01 4.378146e+01
      vertex   2.922314e+01 5.712184e+01 4.750000e+01
      vertex   2.922314e+01 4.815859e+01 4.390971e+01
    endloop
  endfacet
  facet normal 1.000000e+00 -0.000000e+00 0.000000e+00
    outer loop
      vertex   2.922314e+01 4.829502e+01 4.378146e+01
      vertex   2.922314e+01 4.841558e+01 4.363829e+01
      vertex   2.922314e+01 5.712184e+01 4.750000e+01
    endloop
  endfacet
  facet normal 1.000000e+00 0.000000e+00 0.000000e+00
    outer loop
      vertex   2.922314e+01 5.712184e+01 4.750000e+01
      vertex   2.922314e+01 4.841558e+01 4.363829e+01
      vertex   2.922314e+01 4.851865e+01 4.348214e+01
    endloop
  endfacet
  facet normal 1.000000e+00 0.000000e+00 -0.000000e+00
    outer loop
      vertex   2.922314e+01 4.860283e+01 4.331513e+01
      vertex   2.922314e+01 5.712184e+01 4.750000e+01
      vertex   2.922314e+01 4.851865e+01 4.348214e+01
    endloop
  endfacet
  facet normal 1.000000e+00 -0.000000e+00 0.000000e+00
    outer loop
      vertex   2.922314e+01 4.860283e+01 4.331513e+01
      vertex   2.922314e+01 4.866698e+01 4.313951e+01
      vertex   2.922314e+01 5.712184e+01 4.750000e+01
    endloop
  endfacet
  facet normal 1.000000e+00 0.000000e+00 0.000000e+00
    outer loop
      vertex   2.922314e+01 5.712184e+01 4.750000e+01
      vertex   2.922314e+01 4.866698e+01 4.313951e+01
      vertex   2.922314e+01 4.871023e+01 4.295765e+01
    endloop
  endfacet
  facet normal 1.000000e+00 0.000000e+00 -0.000000e+00
    outer loop
      vertex   2.922314e+01 4.873201e+01 4.277202e+01
      vertex   2.922314e+01 5.712184e+01 4.750000e+01
      vertex   2.922314e+01 4.871023e+01 4.295765e+01
    endloop
  endfacet
  facet normal 1.000000e+00 -0.000000e+00 0.000000e+00
    outer loop
      vertex   2.922314e+01 4.873201e+01 4.277202e+01
      vertex   2.922314e+01 4.873201e+01 4.258512e+01
      vertex   2.922314e+01 5.712184e+01 4.750000e+01
    endloop
  endfacet
  facet normal 1.000000e+00 0.000000e+00 0.000000e+00
    outer loop
      vertex   2.922314e+01 5.712184e+01 4.750000e+01
      vertex   2.922314e+01 4.873201e+01 4.258512e+01
      vertex   2.922314e+01 4.871023e+01 4.239949e+01
    endloop
  endfacet
  facet normal 1.000000e+00 0.000000e+00 -0.000000e+00
    outer loop
      vertex   2.922314e+01 4.866698e+01 4.221764e+01
      vertex   2.922314e+01 5.712184e+01 4.750000e+01
      vertex   2.922314e+01 4.871023e+01 4.239949e+01
    endloop
  endfacet
  facet normal -1.019649e-03 -5.793784e-02 9.983197e-01
    outer loop
      vertex   2.922314e+01 4.730908e+01 4.108230e+01
      vertex   2.655648e+01 4.721562e+01 4.107415e+01
      vertex   2.922314e+01 4.712184e+01 4.107143e+01
    endloop
  endfacet
  facet normal 1.019685e-03 -1.156838e-01 9.932856e-01
    outer loop
      vertex   2.922314e+01 4.730908e+01 4.108230e+01
      vertex   2.655648e+01 4.740191e+01 4.109584e+01
      vertex   2.655648e+01 4.721562e+01 4.107415e+01
    endloop
  endfacet
  facet normal -1.019746e-03 -1.730465e-01 9.849131e-01
    outer loop
      vertex   2.922314e+01 4.730908e+01 4.108230e+01
      vertex   2.922314e+01 4.749380e+01 4.111475e+01
      vertex   2.655648e+01 4.740191e+01 4.109584e+01
    endloop
  endfacet
  facet normal 1.019830e-03 -2.298357e-01 9.732289e-01
    outer loop
      vertex   2.655648e+01 4.740191e+01 4.109584e+01
      vertex   2.922314e+01 4.749380e+01 4.111475e+01
      vertex   2.655648e+01 4.758442e+01 4.113895e+01
    endloop
  endfacet
  facet normal 1.019935e-03 -2.858626e-01 9.582701e-01
    outer loop
      vertex   2.388981e+01 4.749380e+01 4.111475e+01
      vertex   2.655648e+01 4.758442e+01 4.113895e+01
      vertex   2.388981e+01 4.767348e+01 4.116835e+01
    endloop
  endfacet
  facet normal -1.019830e-03 -2.298357e-01 9.732289e-01
    outer loop
      vertex   2.388981e+01 4.749380e+01 4.111475e+01
      vertex   2.655648e+01 4.740191e+01 4.109584e+01
      vertex   2.655648e+01 4.758442e+01 4.113895e+01
    endloop
  endfacet
  facet normal 1.019746e-03 -1.730465e-01 9.849131e-01
    outer loop
      vertex   2.388981e+01 4.749380e+01 4.111475e+01
      vertex   2.388981e+01 4.730908e+01 4.108230e+01
      vertex   2.655648e+01 4.740191e+01 4.109584e+01
    endloop
  endfacet
  facet normal -1.019685e-03 -1.156838e-01 9.932856e-01
    outer loop
      vertex   2.655648e+01 4.740191e+01 4.109584e+01
      vertex   2.388981e+01 4.730908e+01 4.108230e+01
      vertex   2.655648e+01 4.721562e+01 4.107415e+01
    endloop
  endfacet
  facet normal 1.019649e-03 -5.793784e-02 9.983197e-01
    outer loop
      vertex   2.655648e+01 4.721562e+01 4.107415e+01
      vertex   2.388981e+01 4.730908e+01 4.108230e+01
      vertex   2.388981e+01 4.712184e+01 4.107143e+01
    endloop
  endfacet
  facet normal 1.019649e-03 5.793784e-02 9.983197e-01
    outer loop
      vertex   2.655648e+01 4.702805e+01 4.107415e+01
      vertex   2.388981e+01 4.712184e+01 4.107143e+01
      vertex   2.388981e+01 4.693459e+01 4.108230e+01
    endloop
  endfacet
  facet normal 1.019746e-03 1.730465e-01 9.849131e-01
    outer loop
      vertex   2.655648e+01 4.684176e+01 4.109584e+01
      vertex   2.388981e+01 4.693459e+01 4.108230e+01
      vertex   2.388981e+01 4.674987e+01 4.111475e+01
    endloop
  endfacet
  facet normal 1.019935e-03 2.858626e-01 9.582701e-01
    outer loop
      vertex   2.655648e+01 4.665925e+01 4.113895e+01
      vertex   2.388981e+01 4.674987e+01 4.111475e+01
      vertex   2.388981e+01 4.657019e+01 4.116835e+01
    endloop
  endfacet
  facet normal 1.020207e-03 3.948859e-01 9.187296e-01
    outer loop
      vertex   2.655648e+01 4.648300e+01 4.120287e+01
      vertex   2.388981e+01 4.657019e+01 4.116835e+01
      vertex   2.388981e+01 4.639797e+01 4.124238e+01
    endloop
  endfacet
  facet normal 1.020546e-03 4.986587e-01 8.667978e-01
    outer loop
      vertex   2.655648e+01 4.631538e+01 4.128674e+01
      vertex   2.388981e+01 4.639797e+01 4.124238e+01
      vertex   2.388981e+01 4.623553e+01 4.133582e+01
    endloop
  endfacet
  facet normal 1.020935e-03 5.957835e-01 8.031445e-01
    outer loop
      vertex   2.655648e+01 4.615868e+01 4.138944e+01
      vertex   2.388981e+01 4.623553e+01 4.133582e+01
      vertex   2.388981e+01 4.608508e+01 4.144743e+01
    endloop
  endfacet
  facet normal 1.021352e-03 6.849413e-01 7.285975e-01
    outer loop
      vertex   2.655648e+01 4.601499e+01 4.150958e+01
      vertex   2.388981e+01 4.608508e+01 4.144743e+01
      vertex   2.388981e+01 4.594865e+01 4.157568e+01
    endloop
  endfacet
  facet normal 1.021776e-03 7.649101e-01 6.441363e-01
    outer loop
      vertex   2.655648e+01 4.588628e+01 4.164552e+01
      vertex   2.388981e+01 4.594865e+01 4.157568e+01
      vertex   2.388981e+01 4.582809e+01 4.171885e+01
    endloop
  endfacet
  facet normal 1.022183e-03 8.345830e-01 5.508813e-01
    outer loop
      vertex   2.655648e+01 4.577427e+01 4.179543e+01
      vertex   2.388981e+01 4.582809e+01 4.171885e+01
      vertex   2.388981e+01 4.572502e+01 4.187500e+01
    endloop
  endfacet
  facet normal 1.022552e-03 8.929866e-01 4.500821e-01
    outer loop
      vertex   2.655648e+01 4.568049e+01 4.195729e+01
      vertex   2.388981e+01 4.572502e+01 4.187500e+01
      vertex   2.388981e+01 4.564084e+01 4.204201e+01
    endloop
  endfacet
  facet normal 1.022861e-03 9.392977e-01 3.431018e-01
    outer loop
      vertex   2.655648e+01 4.560620e+01 4.212890e+01
      vertex   2.388981e+01 4.564084e+01 4.204201e+01
      vertex   2.388981e+01 4.557669e+01 4.221764e+01
    endloop
  endfacet
  facet normal 1.023095e-03 9.728586e-01 2.313981e-01
    outer loop
      vertex   2.655648e+01 4.555241e+01 4.230794e+01
      vertex   2.388981e+01 4.557669e+01 4.221764e+01
      vertex   2.388981e+01 4.553344e+01 4.239949e+01
    endloop
  endfacet
  facet normal 1.023241e-03 9.931898e-01 1.165033e-01
    outer loop
      vertex   2.655648e+01 4.551984e+01 4.249199e+01
      vertex   2.388981e+01 4.553344e+01 4.239949e+01
      vertex   2.388981e+01 4.551166e+01 4.258512e+01
    endloop
  endfacet
  facet normal 1.023291e-03 9.999995e-01 -0.000000e+00
    outer loop
      vertex   2.655648e+01 4.550893e+01 4.267857e+01
      vertex   2.388981e+01 4.551166e+01 4.258512e+01
      vertex   2.388981e+01 4.551166e+01 4.277202e+01
    endloop
  endfacet
  facet normal 1.023241e-03 9.931898e-01 -1.165033e-01
    outer loop
      vertex   2.655648e+01 4.551984e+01 4.286515e+01
      vertex   2.388981e+01 4.551166e+01 4.277202e+01
      vertex   2.388981e+01 4.553344e+01 4.295765e+01
    endloop
  endfacet
  facet normal 1.023095e-03 9.728586e-01 -2.313981e-01
    outer loop
      vertex   2.655648e+01 4.555241e+01 4.304920e+01
      vertex   2.388981e+01 4.553344e+01 4.295765e+01
      vertex   2.388981e+01 4.557669e+01 4.313951e+01
    endloop
  endfacet
  facet normal 1.022861e-03 9.392977e-01 -3.431018e-01
    outer loop
      vertex   2.655648e+01 4.560620e+01 4.322825e+01
      vertex   2.388981e+01 4.557669e+01 4.313951e+01
      vertex   2.388981e+01 4.564084e+01 4.331513e+01
    endloop
  endfacet
  facet normal 1.022552e-03 8.929866e-01 -4.500821e-01
    outer loop
      vertex   2.655648e+01 4.568049e+01 4.339986e+01
      vertex   2.388981e+01 4.564084e+01 4.331513e+01
      vertex   2.388981e+01 4.572502e+01 4.348214e+01
    endloop
  endfacet
  facet normal 1.022183e-03 8.345830e-01 -5.508813e-01
    outer loop
      vertex   2.655648e+01 4.577427e+01 4.356171e+01
      vertex   2.388981e+01 4.572502e+01 4.348214e+01
      vertex   2.388981e+01 4.582809e+01 4.363829e+01
    endloop
  endfacet
  facet normal 1.021776e-03 7.649101e-01 -6.441363e-01
    outer loop
      vertex   2.655648e+01 4.588628e+01 4.371162e+01
      vertex   2.388981e+01 4.582809e+01 4.363829e+01
      vertex   2.388981e+01 4.594865e+01 4.378146e+01
    endloop
  endfacet
  facet normal 1.021352e-03 6.849413e-01 -7.285975e-01
    outer loop
      vertex   2.655648e+01 4.601499e+01 4.384756e+01
      vertex   2.388981e+01 4.594865e+01 4.378146e+01
      vertex   2.388981e+01 4.608508e+01 4.390971e+01
    endloop
  endfacet
  facet normal 1.020935e-03 5.957835e-01 -8.031445e-01
    outer loop
      vertex   2.655648e+01 4.615868e+01 4.396770e+01
      vertex   2.388981e+01 4.608508e+01 4.390971e+01
      vertex   2.388981e+01 4.623553e+01 4.402132e+01
    endloop
  endfacet
  facet normal 1.020546e-03 4.986587e-01 -8.667978e-01
    outer loop
      vertex   2.655648e+01 4.631538e+01 4.407040e+01
      vertex   2.388981e+01 4.623553e+01 4.402132e+01
      vertex   2.388981e+01 4.639797e+01 4.411477e+01
    endloop
  endfacet
  facet normal 1.020207e-03 3.948859e-01 -9.187296e-01
    outer loop
      vertex   2.655648e+01 4.648300e+01 4.415428e+01
      vertex   2.388981e+01 4.639797e+01 4.411477e+01
      vertex   2.388981e+01 4.657019e+01 4.418879e+01
    endloop
  endfacet
  facet normal 1.019935e-03 2.858626e-01 -9.582701e-01
    outer loop
      vertex   2.655648e+01 4.665925e+01 4.421820e+01
      vertex   2.388981e+01 4.657019e+01 4.418879e+01
      vertex   2.388981e+01 4.674987e+01 4.424239e+01
    endloop
  endfacet
  facet normal 1.019746e-03 1.730465e-01 -9.849131e-01
    outer loop
      vertex   2.655648e+01 4.684176e+01 4.426130e+01
      vertex   2.388981e+01 4.674987e+01 4.424239e+01
      vertex   2.388981e+01 4.693459e+01 4.427485e+01
    endloop
  endfacet
  facet normal 1.019649e-03 5.793784e-02 -9.983197e-01
    outer loop
      vertex   2.655648e+01 4.702805e+01 4.428300e+01
      vertex   2.388981e+01 4.693459e+01 4.427485e+01
      vertex   2.388981e+01 4.712184e+01 4.428571e+01
    endloop
  endfacet
  facet normal 1.019649e-03 -5.793784e-02 -9.983197e-01
    outer loop
      vertex   2.655648e+01 4.721562e+01 4.428300e+01
      vertex   2.388981e+01 4.712184e+01 4.428571e+01
      vertex   2.388981e+01 4.730908e+01 4.427485e+01
    endloop
  endfacet
  facet normal 1.019746e-03 -1.730465e-01 -9.849131e-01
    outer loop
      vertex   2.655648e+01 4.740191e+01 4.426130e+01
      vertex   2.388981e+01 4.730908e+01 4.427485e+01
      vertex   2.388981e+01 4.749380e+01 4.424239e+01
    endloop
  endfacet
  facet normal 1.019935e-03 -2.858626e-01 -9.582701e-01
    outer loop
      vertex   2.655648e+01 4.758442e+01 4.421820e+01
      vertex   2.388981e+01 4.749380e+01 4.424239e+01
      vertex   2.388981e+01 4.767348e+01 4.418879e+01
    endloop
  endfacet
  facet normal 1.020207e-03 -3.948859e-01 -9.187296e-01
    outer loop
      vertex   2.655648e+01 4.776067e+01 4.415428e+01
      vertex   2.388981e+01 4.767348e+01 4.418879e+01
      vertex   2.388981e+01 4.784570e+01 4.411477e+01
    endloop
  endfacet
  facet normal 1.020546e-03 -4.986587e-01 -8.667978e-01
    outer loop
      vertex   2.655648e+01 4.792829e+01 4.407040e+01
      vertex   2.388981e+01 4.784570e+01 4.411477e+01
      vertex   2.388981e+01 4.800814e+01 4.402132e+01
    endloop
  endfacet
  facet normal 1.020935e-03 -5.957835e-01 -8.031445e-01
    outer loop
      vertex   2.655648e+01 4.808499e+01 4.396770e+01
      vertex   2.388981e+01 4.800814e+01 4.402132e+01
      vertex   2.388981e+01 4.815859e+01 4.390971e+01
    endloop
  endfacet
  facet normal 1.021352e-03 -6.849413e-01 -7.285975e-01
    outer loop
      vertex   2.655648e+01 4.822868e+01 4.384756e+01
      vertex   2.388981e+01 4.815859e+01 4.390971e+01
      vertex   2.388981e+01 4.829502e+01 4.378146e+01
    endloop
  endfacet
  facet normal 1.021776e-03 -7.649101e-01 -6.441363e-01
    outer loop
      vertex   2.655648e+01 4.835739e+01 4.371162e+01
      vertex   2.388981e+01 4.829502e+01 4.378146e+01
      vertex   2.388981e+01 4.841558e+01 4.363829e+01
    endloop
  endfacet
  facet normal 1.022183e-03 -8.345830e-01 -5.508813e-01
    outer loop
      vertex   2.655648e+01 4.846940e+01 4.356171e+01
      vertex   2.388981e+01 4.841558e+01 4.363829e+01
      vertex   2.388981e+01 4.851865e+01 4.348214e+01
    endloop
  endfacet
  facet normal 1.022552e-03 -8.929866e-01 -4.500821e-01
    outer loop
      vertex   2.655648e+01 4.856318e+01 4.339986e+01
      vertex   2.388981e+01 4.851865e+01 4.348214e+01
      vertex   2.388981e+01 4.860283e+01 4.331513e+01
    endloop
  endfacet
  facet normal 1.022861e-03 -9.392977e-01 -3.431018e-01
    outer loop
      vertex   2.655648e+01 4.863747e+01 4.322825e+01
      vertex   2.388981e+01 4.860283e+01 4.331513e+01
      vertex   2.388981e+01 4.866698e+01 4.313951e+01
    endloop
  endfacet
  facet normal 1.023095e-03 -9.728586e-01 -2.313981e-01
    outer loop
      vertex   2.655648e+01 4.869126e+01 4.304920e+01
      vertex   2.388981e+01 4.866698e+01 4.313951e+01
      vertex   2.388981e+01 4.871023e+01 4.295765e+01
    endloop
  endfacet
  facet normal 1.023241e-03 -9.931898e-01 -1.165033e-01
    outer loop
      vertex   2.655648e+01 4.872383e+01 4.286515e+01
      vertex   2.388981e+01 4.871023e+01 4.295765e+01
      vertex   2.388981e+01 4.873201e+01 4.277202e+01
    endloop
  endfacet
  facet normal 1.023291e-03 -9.999995e-01 0.000000e+00
    outer loop
      vertex   2.655648e+01 4.873474e+01 4.267857e+01
      vertex   2.388981e+01 4.873201e+01 4.277202e+01
      vertex   2.388981e+01 4.873201e+01 4.258512e+01
    endloop
  endfacet
  facet normal 1.023241e-03 -9.931898e-01 1.165033e-01
    outer loop
      vertex   2.655648e+01 4.872383e+01 4.249199e+01
      vertex   2.388981e+01 4.873201e+01 4.258512e+01
      vertex   2.388981e+01 4.871023e+01 4.239949e+01
    endloop
  endfacet
  facet normal 1.023095e-03 -9.728586e-01 2.313981e-01
    outer loop
      vertex   2.655648e+01 4.869126e+01 4.230794e+01
      vertex   2.388981e+01 4.871023e+01 4.239949e+01
      vertex   2.388981e+01 4.866698e+01 4.221764e+01
    endloop
  endfacet
  facet normal 1.022861e-03 -9.392977e-01 3.431018e-01
    outer loop
      vertex   2.655648e+01 4.863747e+01 4.212890e+01
      vertex   2.388981e+01 4.866698e+01 4.221764e+01
      vertex   2.388981e+01 4.860283e+01 4.204201e+01
    endloop
  endfacet
  facet normal 1.022552e-03 -8.929866e-01 4.500821e-01
    outer loop
      vertex   2.655648e+01 4.856318e+01 4.195729e+01
      vertex   2.388981e+01 4.860283e+01 4.204201e+01
      vertex   2.388981e+01 4.851865e+01 4.187500e+01
    endloop
  endfacet
  facet normal 1.022183e-03 -8.345830e-01 5.508813e-01
    outer loop
      vertex   2.655648e+01 4.846940e+01 4.179543e+01
      vertex   2.388981e+01 4.851865e+01 4.187500e+01
      vertex   2.388981e+01 4.841558e+01 4.171885e+01
    endloop
  endfacet
  facet normal 1.021776e-03 -7.649101e-01 6.441363e-01
    outer loop
      vertex   2.655648e+01 4.835739e+01 4.164552e+01
      vertex   2.388981e+01 4.841558e+01 4.171885e+01
      vertex   2.388981e+01 4.829502e+01 4.157568e+01
    endloop
  endfacet
  facet normal 1.021352e-03 -6.849413e-01 7.285975e-01
    outer loop
      vertex   2.655648e+01 4.822868e+01 4.150958e+01
      vertex   2.388981e+01 4.829502e+01 4.157568e+01
      vertex   2.388981e+01 4.815859e+01 4.144743e+01
    endloop
  endfacet
  facet normal 1.020935e-03 -5.957835e-01 8.031445e-01
    outer loop
      vertex   2.655648e+01 4.808499e+01 4.138944e+01
      vertex   2.388981e+01 4.815859e+01 4.144743e+01
      vertex   2.388981e+01 4.800814e+01 4.133582e+01
    endloop
  endfacet
  facet normal 1.020546e-03 -4.986587e-01 8.667978e-01
    outer loop
      vertex   2.655648e+01 4.792829e+01 4.128674e+01
      vertex   2.388981e+01 4.800814e+01 4.133582e+01
      vertex   2.388981e+01 4.784570e+01 4.124238e+01
    endloop
  endfacet
  facet normal 1.020207e-03 -3.948859e-01 9.187296e-01
    outer loop
      vertex   2.655648e+01 4.776067e+01 4.120287e+01
      vertex   2.388981e+01 4.784570e+01 4.124238e+01
      vertex   2.388981e+01 4.767348e+01 4.116835e+01
    endloop
  endfacet
  facet normal -1.020062e-03 -3.409407e-01 9.400843e-01
    outer loop
      vertex   2.655648e+01 4.758442e+01 4.113895e+01
      vertex   2.655648e+01 4.776067e+01 4.120287e+01
      vertex   2.388981e+01 4.767348e+01 4.116835e+01
    endloop
  endfacet
  facet normal 1.020062e-03 -3.409407e-01 9.400843e-01
    outer loop
      vertex   2.655648e+01 4.758442e+01 4.113895e+01
      vertex   2.922314e+01 4.767348e+01 4.116835e+01
      vertex   2.655648e+01 4.776067e+01 4.120287e+01
    endloop
  endfacet
  facet normal -1.019935e-03 -2.858626e-01 9.582701e-01
    outer loop
      vertex   2.655648e+01 4.758442e+01 4.113895e+01
      vertex   2.922314e+01 4.749380e+01 4.111475e+01
      vertex   2.922314e+01 4.767348e+01 4.116835e+01
    endloop
  endfacet
  facet normal -1.020207e-03 -3.948859e-01 9.187296e-01
    outer loop
      vertex   2.922314e+01 4.767348e+01 4.116835e+01
      vertex   2.922314e+01 4.784570e+01 4.124238e+01
      vertex   2.655648e+01 4.776067e+01 4.120287e+01
    endloop
  endfacet
  facet normal 1.020369e-03 -4.475176e-01 8.942746e-01
    outer loop
      vertex   2.655648e+01 4.776067e+01 4.120287e+01
      vertex   2.922314e+01 4.784570e+01 4.124238e+01
      vertex   2.655648e+01 4.792829e+01 4.128674e+01
    endloop
  endfacet
  facet normal -1.020369e-03 -4.475176e-01 8.942746e-01
    outer loop
      vertex   2.388981e+01 4.784570e+01 4.124238e+01
      vertex   2.655648e+01 4.776067e+01 4.120287e+01
      vertex   2.655648e+01 4.792829e+01 4.128674e+01
    endloop
  endfacet
  facet normal -1.020546e-03 -4.986587e-01 8.667978e-01
    outer loop
      vertex   2.922314e+01 4.784570e+01 4.124238e+01
      vertex   2.922314e+01 4.800814e+01 4.133582e+01
      vertex   2.655648e+01 4.792829e+01 4.128674e+01
    endloop
  endfacet
  facet normal 1.020736e-03 -5.481365e-01 8.363882e-01
    outer loop
      vertex   2.655648e+01 4.792829e+01 4.128674e+01
      vertex   2.922314e+01 4.800814e+01 4.133582e+01
      vertex   2.655648e+01 4.808499e+01 4.138944e+01
    endloop
  endfacet
  facet normal -1.020736e-03 -5.481365e-01 8.363882e-01
    outer loop
      vertex   2.388981e+01 4.800814e+01 4.133582e+01
      vertex   2.655648e+01 4.792829e+01 4.128674e+01
      vertex   2.655648e+01 4.808499e+01 4.138944e+01
    endloop
  endfacet
  facet normal -1.020935e-03 -5.957835e-01 8.031445e-01
    outer loop
      vertex   2.922314e+01 4.800814e+01 4.133582e+01
      vertex   2.922314e+01 4.815859e+01 4.144743e+01
      vertex   2.655648e+01 4.808499e+01 4.138944e+01
    endloop
  endfacet
  facet normal 1.021141e-03 -6.414371e-01 7.671749e-01
    outer loop
      vertex   2.655648e+01 4.808499e+01 4.138944e+01
      vertex   2.922314e+01 4.815859e+01 4.144743e+01
      vertex   2.655648e+01 4.822868e+01 4.150958e+01
    endloop
  endfacet
  facet normal -1.021141e-03 -6.414371e-01 7.671749e-01
    outer loop
      vertex   2.388981e+01 4.815859e+01 4.144743e+01
      vertex   2.655648e+01 4.808499e+01 4.138944e+01
      vertex   2.655648e+01 4.822868e+01 4.150958e+01
    endloop
  endfacet
  facet normal -1.021352e-03 -6.849413e-01 7.285975e-01
    outer loop
      vertex   2.922314e+01 4.815859e+01 4.144743e+01
      vertex   2.922314e+01 4.829502e+01 4.157568e+01
      vertex   2.655648e+01 4.822868e+01 4.150958e+01
    endloop
  endfacet
  facet normal 1.021565e-03 -7.261464e-01 6.875393e-01
    outer loop
      vertex   2.655648e+01 4.822868e+01 4.150958e+01
      vertex   2.922314e+01 4.829502e+01 4.157568e+01
      vertex   2.655648e+01 4.835739e+01 4.164552e+01
    endloop
  endfacet
  facet normal -1.021565e-03 -7.261464e-01 6.875393e-01
    outer loop
      vertex   2.388981e+01 4.829502e+01 4.157568e+01
      vertex   2.655648e+01 4.822868e+01 4.150958e+01
      vertex   2.655648e+01 4.835739e+01 4.164552e+01
    endloop
  endfacet
  facet normal -1.021776e-03 -7.649101e-01 6.441363e-01
    outer loop
      vertex   2.922314e+01 4.829502e+01 4.157568e+01
      vertex   2.922314e+01 4.841558e+01 4.171885e+01
      vertex   2.655648e+01 4.835739e+01 4.164552e+01
    endloop
  endfacet
  facet normal 1.021983e-03 -8.010977e-01 5.985327e-01
    outer loop
      vertex   2.655648e+01 4.835739e+01 4.164552e+01
      vertex   2.922314e+01 4.841558e+01 4.171885e+01
      vertex   2.655648e+01 4.846940e+01 4.179543e+01
    endloop
  endfacet
  facet normal -1.021983e-03 -8.010977e-01 5.985327e-01
    outer loop
      vertex   2.388981e+01 4.841558e+01 4.171885e+01
      vertex   2.655648e+01 4.835739e+01 4.164552e+01
      vertex   2.655648e+01 4.846940e+01 4.179543e+01
    endloop
  endfacet
  facet normal -1.022183e-03 -8.345830e-01 5.508813e-01
    outer loop
      vertex   2.922314e+01 4.841558e+01 4.171885e+01
      vertex   2.922314e+01 4.851865e+01 4.187500e+01
      vertex   2.655648e+01 4.846940e+01 4.179543e+01
    endloop
  endfacet
  facet normal 1.022373e-03 -8.652486e-01 5.013420e-01
    outer loop
      vertex   2.655648e+01 4.846940e+01 4.179543e+01
      vertex   2.922314e+01 4.851865e+01 4.187500e+01
      vertex   2.655648e+01 4.856318e+01 4.195729e+01
    endloop
  endfacet
  facet normal -1.022373e-03 -8.652486e-01 5.013420e-01
    outer loop
      vertex   2.388981e+01 4.851865e+01 4.187500e+01
      vertex   2.655648e+01 4.846940e+01 4.179543e+01
      vertex   2.655648e+01 4.856318e+01 4.195729e+01
    endloop
  endfacet
  facet normal -1.022552e-03 -8.929866e-01 4.500821e-01
    outer loop
      vertex   2.922314e+01 4.851865e+01 4.187500e+01
      vertex   2.922314e+01 4.860283e+01 4.204201e+01
      vertex   2.655648e+01 4.856318e+01 4.195729e+01
    endloop
  endfacet
  facet normal 1.022715e-03 -9.176988e-01 3.972755e-01
    outer loop
      vertex   2.655648e+01 4.856318e+01 4.195729e+01
      vertex   2.922314e+01 4.860283e+01 4.204201e+01
      vertex   2.655648e+01 4.863747e+01 4.212890e+01
    endloop
  endfacet
  facet normal -1.022715e-03 -9.176988e-01 3.972755e-01
    outer loop
      vertex   2.388981e+01 4.860283e+01 4.204201e+01
      vertex   2.655648e+01 4.856318e+01 4.195729e+01
      vertex   2.655648e+01 4.863747e+01 4.212890e+01
    endloop
  endfacet
  facet normal -1.022861e-03 -9.392977e-01 3.431018e-01
    outer loop
      vertex   2.922314e+01 4.860283e+01 4.204201e+01
      vertex   2.922314e+01 4.866698e+01 4.221764e+01
      vertex   2.655648e+01 4.863747e+01 4.212890e+01
    endloop
  endfacet
  facet normal 1.022989e-03 -9.577062e-01 2.877461e-01
    outer loop
      vertex   2.655648e+01 4.863747e+01 4.212890e+01
      vertex   2.922314e+01 4.866698e+01 4.221764e+01
      vertex   2.655648e+01 4.869126e+01 4.230794e+01
    endloop
  endfacet
  facet normal -1.022989e-03 -9.577062e-01 2.877461e-01
    outer loop
      vertex   2.388981e+01 4.866698e+01 4.221764e+01
      vertex   2.655648e+01 4.863747e+01 4.212890e+01
      vertex   2.655648e+01 4.869126e+01 4.230794e+01
    endloop
  endfacet
  facet normal -1.023095e-03 -9.728586e-01 2.313981e-01
    outer loop
      vertex   2.922314e+01 4.866698e+01 4.221764e+01
      vertex   2.922314e+01 4.871023e+01 4.239949e+01
      vertex   2.655648e+01 4.869126e+01 4.230794e+01
    endloop
  endfacet
  facet normal 1.023180e-03 -9.847006e-01 1.742516e-01
    outer loop
      vertex   2.655648e+01 4.869126e+01 4.230794e+01
      vertex   2.922314e+01 4.871023e+01 4.239949e+01
      vertex   2.655648e+01 4.872383e+01 4.249199e+01
    endloop
  endfacet
  facet normal -1.023180e-03 -9.847006e-01 1.742516e-01
    outer loop
      vertex   2.388981e+01 4.871023e+01 4.239949e+01
      vertex   2.655648e+01 4.869126e+01 4.230794e+01
      vertex   2.655648e+01 4.872383e+01 4.249199e+01
    endloop
  endfacet
  facet normal -1.023241e-03 -9.931898e-01 1.165033e-01
    outer loop
      vertex   2.922314e+01 4.871023e+01 4.239949e+01
      vertex   2.922314e+01 4.873201e+01 4.258512e+01
      vertex   2.655648e+01 4.872383e+01 4.249199e+01
    endloop
  endfacet
  facet normal 1.023278e-03 -9.982955e-01 5.835249e-02
    outer loop
      vertex   2.655648e+01 4.872383e+01 4.249199e+01
      vertex   2.922314e+01 4.873201e+01 4.258512e+01
      vertex   2.655648e+01 4.873474e+01 4.267857e+01
    endloop
  endfacet
  facet normal -1.023278e-03 -9.982955e-01 5.835249e-02
    outer loop
      vertex   2.388981e+01 4.873201e+01 4.258512e+01
      vertex   2.655648e+01 4.872383e+01 4.249199e+01
      vertex   2.655648e+01 4.873474e+01 4.267857e+01
    endloop
  endfacet
  facet normal -1.023291e-03 -9.999995e-01 0.000000e+00
    outer loop
      vertex   2.922314e+01 4.873201e+01 4.258512e+01
      vertex   2.922314e+01 4.873201e+01 4.277202e+01
      vertex   2.655648e+01 4.873474e+01 4.267857e+01
    endloop
  endfacet
  facet normal 1.023278e-03 -9.982955e-01 -5.835249e-02
    outer loop
      vertex   2.655648e+01 4.873474e+01 4.267857e+01
      vertex   2.922314e+01 4.873201e+01 4.277202e+01
      vertex   2.655648e+01 4.872383e+01 4.286515e+01
    endloop
  endfacet
  facet normal -1.023278e-03 -9.982955e-01 -5.835249e-02
    outer loop
      vertex   2.388981e+01 4.873201e+01 4.277202e+01
      vertex   2.655648e+01 4.873474e+01 4.267857e+01
      vertex   2.655648e+01 4.872383e+01 4.286515e+01
    endloop
  endfacet
  facet normal -1.023241e-03 -9.931898e-01 -1.165033e-01
    outer loop
      vertex   2.922314e+01 4.873201e+01 4.277202e+01
      vertex   2.922314e+01 4.871023e+01 4.295765e+01
      vertex   2.655648e+01 4.872383e+01 4.286515e+01
    endloop
  endfacet
  facet normal 1.023180e-03 -9.847006e-01 -1.742516e-01
    outer loop
      vertex   2.655648e+01 4.872383e+01 4.286515e+01
      vertex   2.922314e+01 4.871023e+01 4.295765e+01
      vertex   2.655648e+01 4.869126e+01 4.304920e+01
    endloop
  endfacet
  facet normal -1.023180e-03 -9.847006e-01 -1.742516e-01
    outer loop
      vertex   2.388981e+01 4.871023e+01 4.295765e+01
      vertex   2.655648e+01 4.872383e+01 4.286515e+01
      vertex   2.655648e+01 4.869126e+01 4.304920e+01
    endloop
  endfacet
  facet normal -1.023095e-03 -9.728586e-01 -2.313981e-01
    outer loop
      vertex   2.922314e+01 4.871023e+01 4.295765e+01
      vertex   2.922314e+01 4.866698e+01 4.313951e+01
      vertex   2.655648e+01 4.869126e+01 4.304920e+01
    endloop
  endfacet
  facet normal 1.022989e-03 -9.577062e-01 -2.877461e-01
    outer loop
      vertex   2.655648e+01 4.869126e+01 4.304920e+01
      vertex   2.922314e+01 4.866698e+01 4.313951e+01
      vertex   2.655648e+01 4.863747e+01 4.322825e+01
    endloop
  endfacet
  facet normal -1.022989e-03 -9.577062e-01 -2.877461e-01
    outer loop
      vertex   2.388981e+01 4.866698e+01 4.313951e+01
      vertex   2.655648e+01 4.869126e+01 4.304920e+01
      vertex   2.655648e+01 4.863747e+01 4.322825e+01
    endloop
  endfacet
  facet normal -1.022861e-03 -9.392977e-01 -3.431018e-01
    outer loop
      vertex   2.922314e+01 4.866698e+01 4.313951e+01
      vertex   2.922314e+01 4.860283e+01 4.331513e+01
      vertex   2.655648e+01 4.863747e+01 4.322825e+01
    endloop
  endfacet
  facet normal 1.022715e-03 -9.176988e-01 -3.972755e-01
    outer loop
      vertex   2.655648e+01 4.863747e+01 4.322825e+01
      vertex   2.922314e+01 4.860283e+01 4.331513e+01
      vertex   2.655648e+01 4.856318e+01 4.339986e+01
    endloop
  endfacet
  facet normal -1.022715e-03 -9.176988e-01 -3.972755e-01
    outer loop
      vertex   2.388981e+01 4.860283e+01 4.331513e+01
      vertex   2.655648e+01 4.863747e+01 4.322825e+01
      vertex   2.655648e+01 4.856318e+01 4.339986e+01
    endloop
  endfacet
  facet normal -1.022552e-03 -8.929866e-01 -4.500821e-01
    outer loop
      vertex   2.922314e+01 4.860283e+01 4.331513e+01
      vertex   2.922314e+01 4.851865e+01 4.348214e+01
      vertex   2.655648e+01 4.856318e+01 4.339986e+01
    endloop
  endfacet
  facet normal 1.022373e-03 -8.652486e-01 -5.013420e-01
    outer loop
      vertex   2.655648e+01 4.856318e+01 4.339986e+01
      vertex   2.922314e+01 4.851865e+01 4.348214e+01
      vertex   2.655648e+01 4.846940e+01 4.356171e+01
    endloop
  endfacet
  facet normal -1.022373e-03 -8.652486e-01 -5.013420e-01
    outer loop
      vertex   2.388981e+01 4.851865e+01 4.348214e+01
      vertex   2.655648e+01 4.856318e+01 4.339986e+01
      vertex   2.655648e+01 4.846940e+01 4.356171e+01
    endloop
  endfacet
  facet normal -1.022183e-03 -8.345830e-01 -5.508813e-01
    outer loop
      vertex   2.922314e+01 4.851865e+01 4.348214e+01
      vertex   2.922314e+01 4.841558e+01 4.363829e+01
      vertex   2.655648e+01 4.846940e+01 4.356171e+01
    endloop
  endfacet
  facet normal 1.021983e-03 -8.010977e-01 -5.985327e-01
    outer loop
      vertex   2.655648e+01 4.846940e+01 4.356171e+01
      vertex   2.922314e+01 4.841558e+01 4.363829e+01
      vertex   2.655648e+01 4.835739e+01 4.371162e+01
    endloop
  endfacet
  facet normal -1.021983e-03 -8.010977e-01 -5.985327e-01
    outer loop
      vertex   2.388981e+01 4.841558e+01 4.363829e+01
      vertex   2.655648e+01 4.846940e+01 4.356171e+01
      vertex   2.655648e+01 4.835739e+01 4.371162e+01
    endloop
  endfacet
  facet normal -1.021776e-03 -7.649101e-01 -6.441363e-01
    outer loop
      vertex   2.922314e+01 4.841558e+01 4.363829e+01
      vertex   2.922314e+01 4.829502e+01 4.378146e+01
      vertex   2.655648e+01 4.835739e+01 4.371162e+01
    endloop
  endfacet
  facet normal 1.021565e-03 -7.261464e-01 -6.875393e-01
    outer loop
      vertex   2.655648e+01 4.835739e+01 4.371162e+01
      vertex   2.922314e+01 4.829502e+01 4.378146e+01
      vertex   2.655648e+01 4.822868e+01 4.384756e+01
    endloop
  endfacet
  facet normal -1.021565e-03 -7.261464e-01 -6.875393e-01
    outer loop
      vertex   2.388981e+01 4.829502e+01 4.378146e+01
      vertex   2.655648e+01 4.835739e+01 4.371162e+01
      vertex   2.655648e+01 4.822868e+01 4.384756e+01
    endloop
  endfacet
  facet normal -1.021352e-03 -6.849413e-01 -7.285975e-01
    outer loop
      vertex   2.922314e+01 4.829502e+01 4.378146e+01
      vertex   2.922314e+01 4.815859e+01 4.390971e+01
      vertex   2.655648e+01 4.822868e+01 4.384756e+01
    endloop
  endfacet
  facet normal 1.021141e-03 -6.414371e-01 -7.671749e-01
    outer loop
      vertex   2.655648e+01 4.822868e+01 4.384756e+01
      vertex   2.922314e+01 4.815859e+01 4.390971e+01
      vertex   2.655648e+01 4.808499e+01 4.396770e+01
    endloop
  endfacet
  facet normal -1.021141e-03 -6.414371e-01 -7.671749e-01
    outer loop
      vertex   2.388981e+01 4.815859e+01 4.390971e+01
      vertex   2.655648e+01 4.822868e+01 4.384756e+01
      vertex   2.655648e+01 4.808499e+01 4.396770e+01
    endloop
  endfacet
  facet normal -1.020935e-03 -5.957835e-01 -8.031445e-01
    outer loop
      vertex   2.922314e+01 4.815859e+01 4.390971e+01
      vertex   2.922314e+01 4.800814e+01 4.402132e+01
      vertex   2.655648e+01 4.808499e+01 4.396770e+01
    endloop
  endfacet
  facet normal 1.020736e-03 -5.481365e-01 -8.363882e-01
    outer loop
      vertex   2.655648e+01 4.808499e+01 4.396770e+01
      vertex   2.922314e+01 4.800814e+01 4.402132e+01
      vertex   2.655648e+01 4.792829e+01 4.407040e+01
    endloop
  endfacet
  facet normal -1.020736e-03 -5.481365e-01 -8.363882e-01
    outer loop
      vertex   2.388981e+01 4.800814e+01 4.402132e+01
      vertex   2.655648e+01 4.808499e+01 4.396770e+01
      vertex   2.655648e+01 4.792829e+01 4.407040e+01
    endloop
  endfacet
  facet normal -1.020546e-03 -4.986587e-01 -8.667978e-01
    outer loop
      vertex   2.922314e+01 4.800814e+01 4.402132e+01
      vertex   2.922314e+01 4.784570e+01 4.411477e+01
      vertex   2.655648e+01 4.792829e+01 4.407040e+01
    endloop
  endfacet
  facet normal 1.020369e-03 -4.475176e-01 -8.942746e-01
    outer loop
      vertex   2.655648e+01 4.792829e+01 4.407040e+01
      vertex   2.922314e+01 4.784570e+01 4.411477e+01
      vertex   2.655648e+01 4.776067e+01 4.415428e+01
    endloop
  endfacet
  facet normal -1.020369e-03 -4.475176e-01 -8.942746e-01
    outer loop
      vertex   2.388981e+01 4.784570e+01 4.411477e+01
      vertex   2.655648e+01 4.792829e+01 4.407040e+01
      vertex   2.655648e+01 4.776067e+01 4.415428e+01
    endloop
  endfacet
  facet normal -1.020207e-03 -3.948859e-01 -9.187296e-01
    outer loop
      vertex   2.922314e+01 4.784570e+01 4.411477e+01
      vertex   2.922314e+01 4.767348e+01 4.418879e+01
      vertex   2.655648e+01 4.776067e+01 4.415428e+01
    endloop
  endfacet
  facet normal 1.020062e-03 -3.409407e-01 -9.400843e-01
    outer loop
      vertex   2.655648e+01 4.776067e+01 4.415428e+01
      vertex   2.922314e+01 4.767348e+01 4.418879e+01
      vertex   2.655648e+01 4.758442e+01 4.421820e+01
    endloop
  endfacet
  facet normal -1.020062e-03 -3.409407e-01 -9.400843e-01
    outer loop
      vertex   2.388981e+01 4.767348e+01 4.418879e+01
      vertex   2.655648e+01 4.776067e+01 4.415428e+01
      vertex   2.655648e+01 4.758442e+01 4.421820e+01
    endloop
  endfacet
  facet normal -1.019935e-03 -2.858626e-01 -9.582701e-01
    outer loop
      vertex   2.922314e+01 4.767348e+01 4.418879e+01
      vertex   2.922314e+01 4.749380e+01 4.424239e+01
      vertex   2.655648e+01 4.758442e+01 4.421820e+01
    endloop
  endfacet
  facet normal 1.019830e-03 -2.298357e-01 -9.732289e-01
    outer loop
      vertex   2.655648e+01 4.758442e+01 4.421820e+01
      vertex   2.922314e+01 4.749380e+01 4.424239e+01
      vertex   2.655648e+01 4.740191e+01 4.426130e+01
    endloop
  endfacet
  facet normal -1.019830e-03 -2.298357e-01 -9.732289e-01
    outer loop
      vertex   2.388981e+01 4.749380e+01 4.424239e+01
      vertex   2.655648e+01 4.758442e+01 4.421820e+01
      vertex   2.655648e+01 4.740191e+01 4.426130e+01
    endloop
  endfacet
  facet normal -1.019746e-03 -1.730465e-01 -9.849131e-01
    outer loop
      vertex   2.922314e+01 4.749380e+01 4.424239e+01
      vertex   2.922314e+01 4.730908e+01 4.427485e+01
      vertex   2.655648e+01 4.740191e+01 4.426130e+01
    endloop
  endfacet
  facet normal 1.019685e-03 -1.156838e-01 -9.932856e-01
    outer loop
      vertex   2.655648e+01 4.740191e+01 4.426130e+01
      vertex   2.922314e+01 4.730908e+01 4.427485e+01
      vertex   2.655648e+01 4.721562e+01 4.428300e+01
    endloop
  endfacet
  facet normal -1.019685e-03 -1.156838e-01 -9.932856e-01
    outer loop
      vertex   2.388981e+01 4.730908e+01 4.427485e+01
      vertex   2.655648e+01 4.740191e+01 4.426130e+01
      vertex   2.655648e+01 4.721562e+01 4.428300e+01
    endloop
  endfacet
  facet normal -1.019649e-03 -5.793784e-02 -9.983197e-01
    outer loop
      vertex   2.922314e+01 4.730908e+01 4.427485e+01
      vertex   2.922314e+01 4.712184e+01 4.428571e+01
      vertex   2.655648e+01 4.721562e+01 4.428300e+01
    endloop
  endfacet
  facet normal 1.019636e-03 0.000000e+00 -9.999995e-01
    outer loop
      vertex   2.655648e+01 4.721562e+01 4.428300e+01
      vertex   2.922314e+01 4.712184e+01 4.428571e+01
      vertex   2.655648e+01 4.702805e+01 4.428300e+01
    endloop
  endfacet
  facet normal -1.019636e-03 -0.000000e+00 -9.999995e-01
    outer loop
      vertex   2.388981e+01 4.712184e+01 4.428571e+01
      vertex   2.655648e+01 4.721562e+01 4.428300e+01
      vertex   2.655648e+01 4.702805e+01 4.428300e+01
    endloop
  endfacet
  facet normal -1.019649e-03 5.793784e-02 -9.983197e-01
    outer loop
      vertex   2.922314e+01 4.712184e+01 4.428571e+01
      vertex   2.922314e+01 4.693459e+01 4.427485e+01
      vertex   2.655648e+01 4.702805e+01 4.428300e+01
    endloop
  endfacet
  facet normal 1.019685e-03 1.156838e-01 -9.932856e-01
    outer loop
      vertex   2.655648e+01 4.702805e+01 4.428300e+01
      vertex   2.922314e+01 4.693459e+01 4.427485e+01
      vertex   2.655648e+01 4.684176e+01 4.426130e+01
    endloop
  endfacet
  facet normal -1.019685e-03 1.156838e-01 -9.932856e-01
    outer loop
      vertex   2.388981e+01 4.693459e+01 4.427485e+01
      vertex   2.655648e+01 4.702805e+01 4.428300e+01
      vertex   2.655648e+01 4.684176e+01 4.426130e+01
    endloop
  endfacet
  facet normal -1.019746e-03 1.730465e-01 -9.849131e-01
    outer loop
      vertex   2.922314e+01 4.693459e+01 4.427485e+01
      vertex   2.922314e+01 4.674987e+01 4.424239e+01
      vertex   2.655648e+01 4.684176e+01 4.426130e+01
    endloop
  endfacet
  facet normal 1.019830e-03 2.298357e-01 -9.732289e-01
    outer loop
      vertex   2.655648e+01 4.684176e+01 4.426130e+01
      vertex   2.922314e+01 4.674987e+01 4.424239e+01
      vertex   2.655648e+01 4.665925e+01 4.421820e+01
    endloop
  endfacet
  facet normal -1.019830e-03 2.298357e-01 -9.732289e-01
    outer loop
      vertex   2.388981e+01 4.674987e+01 4.424239e+01
      vertex   2.655648e+01 4.684176e+01 4.426130e+01
      vertex   2.655648e+01 4.665925e+01 4.421820e+01
    endloop
  endfacet
  facet normal -1.019935e-03 2.858626e-01 -9.582701e-01
    outer loop
      vertex   2.922314e+01 4.674987e+01 4.424239e+01
      vertex   2.922314e+01 4.657019e+01 4.418879e+01
      vertex   2.655648e+01 4.665925e+01 4.421820e+01
    endloop
  endfacet
  facet normal 1.020062e-03 3.409407e-01 -9.400843e-01
    outer loop
      vertex   2.655648e+01 4.665925e+01 4.421820e+01
      vertex   2.922314e+01 4.657019e+01 4.418879e+01
      vertex   2.655648e+01 4.648300e+01 4.415428e+01
    endloop
  endfacet
  facet normal -1.020062e-03 3.409407e-01 -9.400843e-01
    outer loop
      vertex   2.388981e+01 4.657019e+01 4.418879e+01
      vertex   2.655648e+01 4.665925e+01 4.421820e+01
      vertex   2.655648e+01 4.648300e+01 4.415428e+01
    endloop
  endfacet
  facet normal -1.020207e-03 3.948859e-01 -9.187296e-01
    outer loop
      vertex   2.922314e+01 4.657019e+01 4.418879e+01
      vertex   2.922314e+01 4.639797e+01 4.411477e+01
      vertex   2.655648e+01 4.648300e+01 4.415428e+01
    endloop
  endfacet
  facet normal 1.020369e-03 4.475176e-01 -8.942746e-01
    outer loop
      vertex   2.655648e+01 4.648300e+01 4.415428e+01
      vertex   2.922314e+01 4.639797e+01 4.411477e+01
      vertex   2.655648e+01 4.631538e+01 4.407040e+01
    endloop
  endfacet
  facet normal -1.020369e-03 4.475176e-01 -8.942746e-01
    outer loop
      vertex   2.388981e+01 4.639797e+01 4.411477e+01
      vertex   2.655648e+01 4.648300e+01 4.415428e+01
      vertex   2.655648e+01 4.631538e+01 4.407040e+01
    endloop
  endfacet
  facet normal -1.020546e-03 4.986587e-01 -8.667978e-01
    outer loop
      vertex   2.922314e+01 4.639797e+01 4.411477e+01
      vertex   2.922314e+01 4.623553e+01 4.402132e+01
      vertex   2.655648e+01 4.631538e+01 4.407040e+01
    endloop
  endfacet
  facet normal 1.020736e-03 5.481365e-01 -8.363882e-01
    outer loop
      vertex   2.655648e+01 4.631538e+01 4.407040e+01
      vertex   2.922314e+01 4.623553e+01 4.402132e+01
      vertex   2.655648e+01 4.615868e+01 4.396770e+01
    endloop
  endfacet
  facet normal -1.020736e-03 5.481365e-01 -8.363882e-01
    outer loop
      vertex   2.388981e+01 4.623553e+01 4.402132e+01
      vertex   2.655648e+01 4.631538e+01 4.407040e+01
      vertex   2.655648e+01 4.615868e+01 4.396770e+01
    endloop
  endfacet
  facet normal -1.020935e-03 5.957835e-01 -8.031445e-01
    outer loop
      vertex   2.922314e+01 4.623553e+01 4.402132e+01
      vertex   2.922314e+01 4.608508e+01 4.390971e+01
      vertex   2.655648e+01 4.615868e+01 4.396770e+01
    endloop
  endfacet
  facet normal 1.021141e-03 6.414371e-01 -7.671749e-01
    outer loop
      vertex   2.655648e+01 4.615868e+01 4.396770e+01
      vertex   2.922314e+01 4.608508e+01 4.390971e+01
      vertex   2.655648e+01 4.601499e+01 4.384756e+01
    endloop
  endfacet
  facet normal -1.021141e-03 6.414371e-01 -7.671749e-01
    outer loop
      vertex   2.388981e+01 4.608508e+01 4.390971e+01
      vertex   2.655648e+01 4.615868e+01 4.396770e+01
      vertex   2.655648e+01 4.601499e+01 4.384756e+01
    endloop
  endfacet
  facet normal -1.021352e-03 6.849413e-01 -7.285975e-01
    outer loop
      vertex   2.922314e+01 4.608508e+01 4.390971e+01
      vertex   2.922314e+01 4.594865e+01 4.378146e+01
      vertex   2.655648e+01 4.601499e+01 4.384756e+01
    endloop
  endfacet
  facet normal 1.021565e-03 7.261464e-01 -6.875393e-01
    outer loop
      vertex   2.655648e+01 4.601499e+01 4.384756e+01
      vertex   2.922314e+01 4.594865e+01 4.378146e+01
      vertex   2.655648e+01 4.588628e+01 4.371162e+01
    endloop
  endfacet
  facet normal -1.021565e-03 7.261464e-01 -6.875393e-01
    outer loop
      vertex   2.388981e+01 4.594865e+01 4.378146e+01
      vertex   2.655648e+01 4.601499e+01 4.384756e+01
      vertex   2.655648e+01 4.588628e+01 4.371162e+01
    endloop
  endfacet
  facet normal -1.021776e-03 7.649101e-01 -6.441363e-01
    outer loop
      vertex   2.922314e+01 4.594865e+01 4.378146e+01
      vertex   2.922314e+01 4.582809e+01 4.363829e+01
      vertex   2.655648e+01 4.588628e+01 4.371162e+01
    endloop
  endfacet
  facet normal 1.021983e-03 8.010977e-01 -5.985327e-01
    outer loop
      vertex   2.655648e+01 4.588628e+01 4.371162e+01
      vertex   2.922314e+01 4.582809e+01 4.363829e+01
      vertex   2.655648e+01 4.577427e+01 4.356171e+01
    endloop
  endfacet
  facet normal -1.021983e-03 8.010977e-01 -5.985327e-01
    outer loop
      vertex   2.388981e+01 4.582809e+01 4.363829e+01
      vertex   2.655648e+01 4.588628e+01 4.371162e+01
      vertex   2.655648e+01 4.577427e+01 4.356171e+01
    endloop
  endfacet
  facet normal -1.022183e-03 8.345830e-01 -5.508813e-01
    outer loop
      vertex   2.922314e+01 4.582809e+01 4.363829e+01
      vertex   2.922314e+01 4.572502e+01 4.348214e+01
      vertex   2.655648e+01 4.577427e+01 4.356171e+01
    endloop
  endfacet
  facet normal 1.022373e-03 8.652486e-01 -5.013420e-01
    outer loop
      vertex   2.655648e+01 4.577427e+01 4.356171e+01
      vertex   2.922314e+01 4.572502e+01 4.348214e+01
      vertex   2.655648e+01 4.568049e+01 4.339986e+01
    endloop
  endfacet
  facet normal -1.022373e-03 8.652486e-01 -5.013420e-01
    outer loop
      vertex   2.388981e+01 4.572502e+01 4.348214e+01
      vertex   2.655648e+01 4.577427e+01 4.356171e+01
      vertex   2.655648e+01 4.568049e+01 4.339986e+01
    endloop
  endfacet
  facet normal -1.022552e-03 8.929866e-01 -4.500821e-01
    outer loop
      vertex   2.922314e+01 4.572502e+01 4.348214e+01
      vertex   2.922314e+01 4.564084e+01 4.331513e+01
      vertex   2.655648e+01 4.568049e+01 4.339986e+01
    endloop
  endfacet
  facet normal 1.022715e-03 9.176988e-01 -3.972755e-01
    outer loop
      vertex   2.655648e+01 4.568049e+01 4.339986e+01
      vertex   2.922314e+01 4.564084e+01 4.331513e+01
      vertex   2.655648e+01 4.560620e+01 4.322825e+01
    endloop
  endfacet
  facet normal -1.022715e-03 9.176988e-01 -3.972755e-01
    outer loop
      vertex   2.388981e+01 4.564084e+01 4.331513e+01
      vertex   2.655648e+01 4.568049e+01 4.339986e+01
      vertex   2.655648e+01 4.560620e+01 4.322825e+01
    endloop
  endfacet
  facet normal -1.022861e-03 9.392977e-01 -3.431018e-01
    outer loop
      vertex   2.922314e+01 4.564084e+01 4.331513e+01
      vertex   2.922314e+01 4.557669e+01 4.313951e+01
      vertex   2.655648e+01 4.560620e+01 4.322825e+01
    endloop
  endfacet
  facet normal 1.022989e-03 9.577062e-01 -2.877461e-01
    outer loop
      vertex   2.655648e+01 4.560620e+01 4.322825e+01
      vertex   2.922314e+01 4.557669e+01 4.313951e+01
      vertex   2.655648e+01 4.555241e+01 4.304920e+01
    endloop
  endfacet
  facet normal -1.022989e-03 9.577062e-01 -2.877461e-01
    outer loop
      vertex   2.388981e+01 4.557669e+01 4.313951e+01
      vertex   2.655648e+01 4.560620e+01 4.322825e+01
      vertex   2.655648e+01 4.555241e+01 4.304920e+01
    endloop
  endfacet
  facet normal -1.023095e-03 9.728586e-01 -2.313981e-01
    outer loop
      vertex   2.922314e+01 4.557669e+01 4.313951e+01
      vertex   2.922314e+01 4.553344e+01 4.295765e+01
      vertex   2.655648e+01 4.555241e+01 4.304920e+01
    endloop
  endfacet
  facet normal 1.023180e-03 9.847006e-01 -1.742516e-01
    outer loop
      vertex   2.655648e+01 4.555241e+01 4.304920e+01
      vertex   2.922314e+01 4.553344e+01 4.295765e+01
      vertex   2.655648e+01 4.551984e+01 4.286515e+01
    endloop
  endfacet
  facet normal -1.023180e-03 9.847006e-01 -1.742516e-01
    outer loop
      vertex   2.388981e+01 4.553344e+01 4.295765e+01
      vertex   2.655648e+01 4.555241e+01 4.304920e+01
      vertex   2.655648e+01 4.551984e+01 4.286515e+01
    endloop
  endfacet
  facet normal -1.023241e-03 9.931898e-01 -1.165033e-01
    outer loop
      vertex   2.922314e+01 4.553344e+01 4.295765e+01
      vertex   2.922314e+01 4.551166e+01 4.277202e+01
      vertex   2.655648e+01 4.551984e+01 4.286515e+01
    endloop
  endfacet
  facet normal 1.023278e-03 9.982955e-01 -5.835249e-02
    outer loop
      vertex   2.655648e+01 4.551984e+01 4.286515e+01
      vertex   2.922314e+01 4.551166e+01 4.277202e+01
      vertex   2.655648e+01 4.550893e+01 4.267857e+01
    endloop
  endfacet
  facet normal -1.023278e-03 9.982955e-01 -5.835249e-02
    outer loop
      vertex   2.388981e+01 4.551166e+01 4.277202e+01
      vertex   2.655648e+01 4.551984e+01 4.286515e+01
      vertex   2.655648e+01 4.550893e+01 4.267857e+01
    endloop
  endfacet
  facet normal -1.023291e-03 9.999995e-01 0.000000e+00
    outer loop
      vertex   2.922314e+01 4.551166e+01 4.277202e+01
      vertex   2.922314e+01 4.551166e+01 4.258512e+01
      vertex   2.655648e+01 4.550893e+01 4.267857e+01
    endloop
  endfacet
  facet normal 1.023278e-03 9.982955e-01 5.835249e-02
    outer loop
      vertex   2.655648e+01 4.550893e+01 4.267857e+01
      vertex   2.922314e+01 4.551166e+01 4.258512e+01
      vertex   2.655648e+01 4.551984e+01 4.249199e+01
    endloop
  endfacet
  facet normal -1.023278e-03 9.982955e-01 5.835249e-02
    outer loop
      vertex   2.388981e+01 4.551166e+01 4.258512e+01
      vertex   2.655648e+01 4.550893e+01 4.267857e+01
      vertex   2.655648e+01 4.551984e+01 4.249199e+01
    endloop
  endfacet
  facet normal -1.023241e-03 9.931898e-01 1.165033e-01
    outer loop
      vertex   2.922314e+01 4.551166e+01 4.258512e+01
      vertex   2.922314e+01 4.553344e+01 4.239949e+01
      vertex   2.655648e+01 4.551984e+01 4.249199e+01
    endloop
  endfacet
  facet normal 1.023180e-03 9.847006e-01 1.742516e-01
    outer loop
      vertex   2.655648e+01 4.551984e+01 4.249199e+01
      vertex   2.922314e+01 4.553344e+01 4.239949e+01
      vertex   2.655648e+01 4.555241e+01 4.230794e+01
    endloop
  endfacet
  facet normal -1.023180e-03 9.847006e-01 1.742516e-01
    outer loop
      vertex   2.388981e+01 4.553344e+01 4.239949e+01
      vertex   2.655648e+01 4.551984e+01 4.249199e+01
      vertex   2.655648e+01 4.555241e+01 4.230794e+01
    endloop
  endfacet
  facet normal -1.023095e-03 9.728586e-01 2.313981e-01
    outer loop
      vertex   2.922314e+01 4.553344e+01 4.239949e+01
      vertex   2.922314e+01 4.557669e+01 4.221764e+01
      vertex   2.655648e+01 4.555241e+01 4.230794e+01
    endloop
  endfacet
  facet normal 1.022989e-03 9.577062e-01 2.877461e-01
    outer loop
      vertex   2.655648e+01 4.555241e+01 4.230794e+01
      vertex   2.922314e+01 4.557669e+01 4.221764e+01
      vertex   2.655648e+01 4.560620e+01 4.212890e+01
    endloop
  endfacet
  facet normal -1.022989e-03 9.577062e-01 2.877461e-01
    outer loop
      vertex   2.388981e+01 4.557669e+01 4.221764e+01
      vertex   2.655648e+01 4.555241e+01 4.230794e+01
      vertex   2.655648e+01 4.560620e+01 4.212890e+01
    endloop
  endfacet
  facet normal -1.022861e-03 9.392977e-01 3.431018e-01
    outer loop
      vertex   2.922314e+01 4.557669e+01 4.221764e+01
      vertex   2.922314e+01 4.564084e+01 4.204201e+01
      vertex   2.655648e+01 4.560620e+01 4.212890e+01
    endloop
  endfacet
  facet normal 1.022715e-03 9.176988e-01 3.972755e-01
    outer loop
      vertex   2.655648e+01 4.560620e+01 4.212890e+01
      vertex   2.922314e+01 4.564084e+01 4.204201e+01
      vertex   2.655648e+01 4.568049e+01 4.195729e+01
    endloop
  endfacet
  facet normal -1.022715e-03 9.176988e-01 3.972755e-01
    outer loop
      vertex   2.388981e+01 4.564084e+01 4.204201e+01
      vertex   2.655648e+01 4.560620e+01 4.212890e+01
      vertex   2.655648e+01 4.568049e+01 4.195729e+01
    endloop
  endfacet
  facet normal -1.022552e-03 8.929866e-01 4.500821e-01
    outer loop
      vertex   2.922314e+01 4.564084e+01 4.204201e+01
      vertex   2.922314e+01 4.572502e+01 4.187500e+01
      vertex   2.655648e+01 4.568049e+01 4.195729e+01
    endloop
  endfacet
  facet normal 1.022373e-03 8.652486e-01 5.013420e-01
    outer loop
      vertex   2.655648e+01 4.568049e+01 4.195729e+01
      vertex   2.922314e+01 4.572502e+01 4.187500e+01
      vertex   2.655648e+01 4.577427e+01 4.179543e+01
    endloop
  endfacet
  facet normal -1.022373e-03 8.652486e-01 5.013420e-01
    outer loop
      vertex   2.388981e+01 4.572502e+01 4.187500e+01
      vertex   2.655648e+01 4.568049e+01 4.195729e+01
      vertex   2.655648e+01 4.577427e+01 4.179543e+01
    endloop
  endfacet
  facet normal -1.022183e-03 8.345830e-01 5.508813e-01
    outer loop
      vertex   2.922314e+01 4.572502e+01 4.187500e+01
      vertex   2.922314e+01 4.582809e+01 4.171885e+01
      vertex   2.655648e+01 4.577427e+01 4.179543e+01
    endloop
  endfacet
  facet normal 1.021983e-03 8.010977e-01 5.985327e-01
    outer loop
      vertex   2.655648e+01 4.577427e+01 4.179543e+01
      vertex   2.922314e+01 4.582809e+01 4.171885e+01
      vertex   2.655648e+01 4.588628e+01 4.164552e+01
    endloop
  endfacet
  facet normal -1.021983e-03 8.010977e-01 5.985327e-01
    outer loop
      vertex   2.388981e+01 4.582809e+01 4.171885e+01
      vertex   2.655648e+01 4.577427e+01 4.179543e+01
      vertex   2.655648e+01 4.588628e+01 4.164552e+01
    endloop
  endfacet
  facet normal -1.021776e-03 7.649101e-01 6.441363e-01
    outer loop
      vertex   2.922314e+01 4.582809e+01 4.171885e+01
      vertex   2.922314e+01 4.594865e+01 4.157568e+01
      vertex   2.655648e+01 4.588628e+01 4.164552e+01
    endloop
  endfacet
  facet normal 1.021565e-03 7.261464e-01 6.875393e-01
    outer loop
      vertex   2.655648e+01 4.588628e+01 4.164552e+01
      vertex   2.922314e+01 4.594865e+01 4.157568e+01
      vertex   2.655648e+01 4.601499e+01 4.150958e+01
    endloop
  endfacet
  facet normal -1.021565e-03 7.261464e-01 6.875393e-01
    outer loop
      vertex   2.388981e+01 4.594865e+01 4.157568e+01
      vertex   2.655648e+01 4.588628e+01 4.164552e+01
      vertex   2.655648e+01 4.601499e+01 4.150958e+01
    endloop
  endfacet
  facet normal -1.021352e-03 6.849413e-01 7.285975e-01
    outer loop
      vertex   2.922314e+01 4.594865e+01 4.157568e+01
      vertex   2.922314e+01 4.608508e+01 4.144743e+01
      vertex   2.655648e+01 4.601499e+01 4.150958e+01
    endloop
  endfacet
  facet normal 1.021141e-03 6.414371e-01 7.671749e-01
    outer loop
      vertex   2.655648e+01 4.601499e+01 4.150958e+01
      vertex   2.922314e+01 4.608508e+01 4.144743e+01
      vertex   2.655648e+01 4.615868e+01 4.138944e+01
    endloop
  endfacet
  facet normal -1.021141e-03 6.414371e-01 7.671749e-01
    outer loop
      vertex   2.388981e+01 4.608508e+01 4.144743e+01
      vertex   2.655648e+01 4.601499e+01 4.150958e+01
      vertex   2.655648e+01 4.615868e+01 4.138944e+01
    endloop
  endfacet
  facet normal -1.020935e-03 5.957835e-01 8.031445e-01
    outer loop
      vertex   2.922314e+01 4.608508e+01 4.144743e+01
      vertex   2.922314e+01 4.623553e+01 4.133582e+01
      vertex   2.655648e+01 4.615868e+01 4.138944e+01
    endloop
  endfacet
  facet normal 1.020736e-03 5.481365e-01 8.363882e-01
    outer loop
      vertex   2.655648e+01 4.615868e+01 4.138944e+01
      vertex   2.922314e+01 4.623553e+01 4.133582e+01
      vertex   2.655648e+01 4.631538e+01 4.128674e+01
    endloop
  endfacet
  facet normal -1.020736e-03 5.481365e-01 8.363882e-01
    outer loop
      vertex   2.388981e+01 4.623553e+01 4.133582e+01
      vertex   2.655648e+01 4.615868e+01 4.138944e+01
      vertex   2.655648e+01 4.631538e+01 4.128674e+01
    endloop
  endfacet
  facet normal -1.020546e-03 4.986587e-01 8.667978e-01
    outer loop
      vertex   2.922314e+01 4.623553e+01 4.133582e+01
      vertex   2.922314e+01 4.639797e+01 4.124238e+01
      vertex   2.655648e+01 4.631538e+01 4.128674e+01
    endloop
  endfacet
  facet normal 1.020369e-03 4.475176e-01 8.942746e-01
    outer loop
      vertex   2.655648e+01 4.631538e+01 4.128674e+01
      vertex   2.922314e+01 4.639797e+01 4.124238e+01
      vertex   2.655648e+01 4.648300e+01 4.120287e+01
    endloop
  endfacet
  facet normal -1.020369e-03 4.475176e-01 8.942746e-01
    outer loop
      vertex   2.388981e+01 4.639797e+01 4.124238e+01
      vertex   2.655648e+01 4.631538e+01 4.128674e+01
      vertex   2.655648e+01 4.648300e+01 4.120287e+01
    endloop
  endfacet
  facet normal -1.020207e-03 3.948859e-01 9.187296e-01
    outer loop
      vertex   2.922314e+01 4.639797e+01 4.124238e+01
      vertex   2.922314e+01 4.657019e+01 4.116835e+01
      vertex   2.655648e+01 4.648300e+01 4.120287e+01
    endloop
  endfacet
  facet normal 1.020062e-03 3.409407e-01 9.400843e-01
    outer loop
      vertex   2.655648e+01 4.648300e+01 4.120287e+01
      vertex   2.922314e+01 4.657019e+01 4.116835e+01
      vertex   2.655648e+01 4.665925e+01 4.113895e+01
    endloop
  endfacet
  facet normal -1.020062e-03 3.409407e-01 9.400843e-01
    outer loop
      vertex   2.388981e+01 4.657019e+01 4.116835e+01
      vertex   2.655648e+01 4.648300e+01 4.120287e+01
      vertex   2.655648e+01 4.665925e+01 4.113895e+01
    endloop
  endfacet
  facet normal -1.019935e-03 2.858626e-01 9.582701e-01
    outer loop
      vertex   2.922314e+01 4.657019e+01 4.116835e+01
      vertex   2.922314e+01 4.674987e+01 4.111475e+01
      vertex   2.655648e+01 4.665925e+01 4.113895e+01
    endloop
  endfacet
  facet normal 1.019830e-03 2.298357e-01 9.732289e-01
    outer loop
      vertex   2.655648e+01 4.665925e+01 4.113895e+01
      vertex   2.922314e+01 4.674987e+01 4.111475e+01
      vertex   2.655648e+01 4.684176e+01 4.109584e+01
    endloop
  endfacet
  facet normal -1.019830e-03 2.298357e-01 9.732289e-01
    outer loop
      vertex   2.388981e+01 4.674987e+01 4.111475e+01
      vertex   2.655648e+01 4.665925e+01 4.113895e+01
      vertex   2.655648e+01 4.684176e+01 4.109584e+01
    endloop
  endfacet
  facet normal -1.019746e-03 1.730465e-01 9.849131e-01
    outer loop
      vertex   2.922314e+01 4.674987e+01 4.111475e+01
      vertex   2.922314e+01 4.693459e+01 4.108230e+01
      vertex   2.655648e+01 4.684176e+01 4.109584e+01
    endloop
  endfacet
  facet normal 1.019685e-03 1.156838e-01 9.932856e-01
    outer loop
      vertex   2.655648e+01 4.684176e+01 4.109584e+01
      vertex   2.922314e+01 4.693459e+01 4.108230e+01
      vertex   2.655648e+01 4.702805e+01 4.107415e+01
    endloop
  endfacet
  facet normal -1.019685e-03 1.156838e-01 9.932856e-01
    outer loop
      vertex   2.388981e+01 4.693459e+01 4.108230e+01
      vertex   2.655648e+01 4.684176e+01 4.109584e+01
      vertex   2.655648e+01 4.702805e+01 4.107415e+01
    endloop
  endfacet
  facet normal -1.019649e-03 5.793784e-02 9.983197e-01
    outer loop
      vertex   2.922314e+01 4.693459e+01 4.108230e+01
      vertex   2.922314e+01 4.712184e+01 4.107143e+01
      vertex   2.655648e+01 4.702805e+01 4.107415e+01
    endloop
  endfacet
  facet normal 1.019636e-03 0.000000e+00 9.999995e-01
    outer loop
      vertex   2.655648e+01 4.702805e+01 4.107415e+01
      vertex   2.922314e+01 4.712184e+01 4.107143e+01
      vertex   2.655648e+01 4.721562e+01 4.107415e+01
    endloop
  endfacet
  facet normal -1.019636e-03 0.000000e+00 9.999995e-01
    outer loop
      vertex   2.388981e+01 4.712184e+01 4.107143e+01
      vertex   2.655648e+01 4.702805e+01 4.107415e+01
      vertex   2.655648e+01 4.721562e+01 4.107415e+01
    endloop
  endfacet
  facet normal 0.000000e+00 -1.000000e+00 0.000000e+00
    outer loop
      vertex   2.388981e+01 3.712184e+01 4.750000e+01
      vertex   2.388981e+01 3.712184e+01 2.500000e+00
      vertex   2.655648e+01 3.712184e+01 4.750000e+01
    endloop
  endfacet
  facet normal 0.000000e+00 -1.000000e+00 -0.000000e+00
    outer loop
      vertex   2.655648e+01 3.712184e+01 4.750000e+01
      vertex   2.388981e+01 3.712184e+01 2.500000e+00
      vertex   2.655648e+01 3.712184e+01 2.500000e+00
    endloop
  endfacet
  facet normal 1.000000e+00 -0.000000e+00 0.000000e+00
    outer loop
      vertex   2.655648e+01 3.712184e+01 4.750000e+01
      vertex   2.655648e+01 3.712184e+01 2.500000e+00
      vertex   2.655648e+01 3.905732e+01 4.750000e+01
    endloop
  endfacet
  facet normal 1.000000e+00 -0.000000e+00 0.000000e+00
    outer loop
      vertex   2.655648e+01 3.905732e+01 4.750000e+01
      vertex   2.655648e+01 3.712184e+01 2.500000e+00
      vertex   2.655648e+01 3.905732e+01 2.500000e+00
    endloop
  endfacet
  facet normal 0.000000e+00 -1.000000e+00 -0.000000e+00
    outer loop
      vertex   2.388981e+01 3.905732e+01 1.021429e+01
      vertex   2.055648e+01 3.905732e+01 7.000000e+00
      vertex   2.388981e+01 3.905732e+01 2.500000e+00
    endloop
  endfacet
  facet normal -0.000000e+00 -1.000000e+00 0.000000e+00
    outer loop
      vertex   2.388981e+01 3.905732e+01 2.500000e+00
      vertex   2.055648e+01 3.905732e+01 7.000000e+00
      vertex   1.655648e+01 3.905732e+01 2.500000e+00
    endloop
  endfacet
  facet normal 0.000000e+00 -1.000000e+00 0.000000e+00
    outer loop
      vertex   1.655648e+01 3.905732e+01 2.500000e+00
      vertex   2.055648e+01 3.905732e+01 7.000000e+00
      vertex   1.655648e+01 3.905732e+01 7.000000e+00
    endloop
  endfacet
  facet normal -0.000000e+00 -1.000000e+00 -0.000000e+00
    outer loop
      vertex   2.922314e+01 3.905732e+01 4.750000e+01
      vertex   2.655648e+01 3.905732e+01 4.750000e+01
      vertex   2.922314e+01 3.905732e+01 1.021429e+01
    endloop
  endfacet
  facet normal -0.000000e+00 -1.000000e+00 -0.000000e+00
    outer loop
      vertex   2.922314e+01 3.905732e+01 1.021429e+01
      vertex   2.655648e+01 3.905732e+01 4.750000e+01
      vertex   2.655648e+01 3.905732e+01 2.500000e+00
    endloop
  endfacet
  facet normal 0.000000e+00 -1.000000e+00 -0.000000e+00
    outer loop
      vertex   3.255648e+01 3.905732e+01 7.000000e+00
      vertex   2.655648e+01 3.905732e+01 2.500000e+00
      vertex   3.655648e+01 3.905732e+01 2.500000e+00
    endloop
  endfacet
  facet normal -0.000000e+00 -1.000000e+00 -0.000000e+00
    outer loop
      vertex   3.655648e+01 3.905732e+01 7.000000e+00
      vertex   3.255648e+01 3.905732e+01 7.000000e+00
      vertex   3.655648e+01 3.905732e+01 2.500000e+00
    endloop
  endfacet
  facet normal 0.000000e+00 -1.000000e+00 -0.000000e+00
    outer loop
      vertex   2.922314e+01 3.905732e+01 1.021429e+01
      vertex   2.655648e+01 3.905732e+01 2.500000e+00
      vertex   3.255648e+01 3.905732e+01 7.000000e+00
    endloop
  endfacet
  facet normal -1.000000e+00 -0.000000e+00 -0.000000e+00
    outer loop
      vertex   2.655648e+01 5.712184e+01 4.750000e+01
      vertex   2.655648e+01 5.712184e+01 2.500000e+00
      vertex   2.655648e+01 5.518635e+01 4.750000e+01
    endloop
  endfacet
  facet normal -1.000000e+00 -0.000000e+00 -0.000000e+00
    outer loop
      vertex   2.655648e+01 5.518635e+01 4.750000e+01
      vertex   2.655648e+01 5.712184e+01 2.500000e+00
      vertex   2.655648e+01 5.518635e+01 2.500000e+00
    endloop
  endfacet
  facet normal 0.000000e+00 1.000000e+00 0.000000e+00
    outer loop
      vertex   2.922314e+01 5.712184e+01 4.750000e+01
      vertex   2.922314e+01 5.712184e+01 2.500000e+00
      vertex   2.655648e+01 5.712184e+01 4.750000e+01
    endloop
  endfacet
  facet normal 0.000000e+00 1.000000e+00 0.000000e+00
    outer loop
      vertex   2.655648e+01 5.712184e+01 4.750000e+01
      vertex   2.922314e+01 5.712184e+01 2.500000e+00
      vertex   2.655648e+01 5.712184e+01 2.500000e+00
    endloop
  endfacet
  facet normal 0.000000e+00 1.000000e+00 0.000000e+00
    outer loop
      vertex   2.922314e+01 5.518635e+01 1.021429e+01
      vertex   3.255648e+01 5.518635e+01 7.000000e+00
      vertex   2.922314e+01 5.518635e+01 2.500000e+00
    endloop
  endfacet
  facet normal -0.000000e+00 1.000000e+00 0.000000e+00
    outer loop
      vertex   2.922314e+01 5.518635e+01 2.500000e+00
      vertex   3.255648e+01 5.518635e+01 7.000000e+00
      vertex   3.655648e+01 5.518635e+01 2.500000e+00
    endloop
  endfacet
  facet normal 0.000000e+00 1.000000e+00 -0.000000e+00
    outer loop
      vertex   3.655648e+01 5.518635e+01 2.500000e+00
      vertex   3.255648e+01 5.518635e+01 7.000000e+00
      vertex   3.655648e+01 5.518635e+01 7.000000e+00
    endloop
  endfacet
  facet normal -0.000000e+00 1.000000e+00 0.000000e+00
    outer loop
      vertex   2.388981e+01 5.518635e+01 4.750000e+01
      vertex   2.655648e+01 5.518635e+01 4.750000e+01
      vertex   2.388981e+01 5.518635e+01 1.021429e+01
    endloop
  endfacet
  facet normal -0.000000e+00 1.000000e+00 0.000000e+00
    outer loop
      vertex   2.388981e+01 5.518635e+01 1.021429e+01
      vertex   2.655648e+01 5.518635e+01 4.750000e+01
      vertex   2.655648e+01 5.518635e+01 2.500000e+00
    endloop
  endfacet
  facet normal 0.000000e+00 1.000000e+00 0.000000e+00
    outer loop
      vertex   2.055648e+01 5.518635e+01 7.000000e+00
      vertex   2.655648e+01 5.518635e+01 2.500000e+00
      vertex   1.655648e+01 5.518635e+01 2.500000e+00
    endloop
  endfacet
  facet normal -0.000000e+00 1.000000e+00 0.000000e+00
    outer loop
      vertex   1.655648e+01 5.518635e+01 7.000000e+00
      vertex   2.055648e+01 5.518635e+01 7.000000e+00
      vertex   1.655648e+01 5.518635e+01 2.500000e+00
    endloop
  endfacet
  facet normal 0.000000e+00 1.000000e+00 0.000000e+00
    outer loop
      vertex   2.388981e+01 5.518635e+01 1.021429e+01
      vertex   2.655648e+01 5.518635e+01 2.500000e+00
      vertex   2.055648e+01 5.518635e+01 7.000000e+00
    endloop
  endfacet
  facet normal 2.664535e-15 0.000000e+00 1.000000e+00
    outer loop
      vertex   2.655648e+01 3.905732e+01 4.750000e+01
      vertex   2.922314e+01 3.905732e+01 4.750000e+01
      vertex   2.655648e+01 5.518635e+01 4.750000e+01
    endloop
  endfacet
  facet normal -2.664535e-15 0.000000e+00 1.000000e+00
    outer loop
      vertex   2.388981e+01 5.518635e+01 4.750000e+01
      vertex   2.655648e+01 3.905732e+01 4.750000e+01
      vertex   2.655648e+01 5.518635e+01 4.750000e+01
    endloop
  endfacet
  facet normal -2.854859e-16 3.933362e-16 1.000000e+00
    outer loop
      vertex   2.388981e+01 5.518635e+01 4.750000e+01
      vertex   2.388981e+01 3.712184e+01 4.750000e+01
      vertex   2.655648e+01 3.905732e+01 4.750000e+01
    endloop
  endfacet
  facet normal -0.000000e+00 0.000000e+00 1.000000e+00
    outer loop
      vertex   2.655648e+01 3.905732e+01 4.750000e+01
      vertex   2.388981e+01 3.712184e+01 4.750000e+01
      vertex   2.655648e+01 3.712184e+01 4.750000e+01
    endloop
  endfacet
  facet normal -0.000000e+00 0.000000e+00 1.000000e+00
    outer loop
      vertex   2.655648e+01 5.712184e+01 4.750000e+01
      vertex   2.655648e+01 5.518635e+01 4.750000e+01
      vertex   2.922314e+01 5.712184e+01 4.750000e+01
    endloop
  endfacet
  facet normal 2.854859e-16 -3.933362e-16 1.000000e+00
    outer loop
      vertex   2.922314e+01 5.712184e+01 4.750000e+01
      vertex   2.655648e+01 5.518635e+01 4.750000e+01
      vertex   2.922314e+01 3.905732e+01 4.750000e+01
    endloop
  endfacet
  facet normal 0.000000e+00 0.000000e+00 1.000000e+00
    outer loop
      vertex   2.055648e+01 5.518635e+01 7.000000e+00
      vertex   1.655648e+01 5.518635e+01 7.000000e+00
      vertex   2.055648e+01 3.905732e+01 7.000000e+00
    endloop
  endfacet
  facet normal 0.000000e+00 0.000000e+00 1.000000e+00
    outer loop
      vertex   2.055648e+01 3.905732e+01 7.000000e+00
      vertex   1.655648e+01 5.518635e+01 7.000000e+00
      vertex   1.655648e+01 3.905732e+01 7.000000e+00
    endloop
  endfacet
  facet normal 0.000000e+00 -0.000000e+00 1.000000e+00
    outer loop
      vertex   3.255648e+01 3.905732e+01 7.000000e+00
      vertex   3.655648e+01 3.905732e+01 7.000000e+00
      vertex   3.255648e+01 5.518635e+01 7.000000e+00
    endloop
  endfacet
  facet normal -0.000000e+00 0.000000e+00 1.000000e+00
    outer loop
      vertex   3.255648e+01 5.518635e+01 7.000000e+00
      vertex   3.655648e+01 3.905732e+01 7.000000e+00
      vertex   3.655648e+01 5.518635e+01 7.000000e+00
    endloop
  endfacet
  facet normal -0.000000e+00 -0.000000e+00 -1.000000e+00
    outer loop
      vertex   3.655648e+01 5.518635e+01 2.500000e+00
      vertex   3.655648e+01 3.905732e+01 2.500000e+00
      vertex   2.922314e+01 5.518635e+01 2.500000e+00
    endloop
  endfacet
  facet normal -0.000000e+00 -0.000000e+00 -1.000000e+00
    outer loop
      vertex   2.922314e+01 5.518635e+01 2.500000e+00
      vertex   3.655648e+01 3.905732e+01 2.500000e+00
      vertex   2.655648e+01 3.905732e+01 2.500000e+00
    endloop
  endfacet
  facet normal -0.000000e+00 -0.000000e+00 -1.000000e+00
    outer loop
      vertex   2.655648e+01 5.518635e+01 2.500000e+00
      vertex   2.655648e+01 3.905732e+01 2.500000e+00
      vertex   2.388981e+01 3.905732e+01 2.500000e+00
    endloop
  endfacet
  facet normal -0.000000e+00 -0.000000e+00 -1.000000e+00
    outer loop
      vertex   1.655648e+01 5.518635e+01 2.500000e+00
      vertex   2.388981e+01 3.905732e+01 2.500000e+00
      vertex   1.655648e+01 3.905732e+01 2.500000e+00
    endloop
  endfacet
  facet normal 0.000000e+00 -0.000000e+00 -1.000000e+00
    outer loop
      vertex   1.655648e+01 5.518635e+01 2.500000e+00
      vertex   2.655648e+01 5.518635e+01 2.500000e+00
      vertex   2.388981e+01 3.905732e+01 2.500000e+00
    endloop
  endfacet
  facet normal 0.000000e+00 0.000000e+00 -1.000000e+00
    outer loop
      vertex   2.655648e+01 3.712184e+01 2.500000e+00
      vertex   2.388981e+01 3.712184e+01 2.500000e+00
      vertex   2.655648e+01 3.905732e+01 2.500000e+00
    endloop
  endfacet
  facet normal -0.000000e+00 0.000000e+00 -1.000000e+00
    outer loop
      vertex   2.655648e+01 3.905732e+01 2.500000e+00
      vertex   2.388981e+01 3.712184e+01 2.500000e+00
      vertex   2.388981e+01 3.905732e+01 2.500000e+00
    endloop
  endfacet
  facet normal 0.000000e+00 -0.000000e+00 -1.000000e+00
    outer loop
      vertex   2.655648e+01 5.712184e+01 2.500000e+00
      vertex   2.922314e+01 5.712184e+01 2.500000e+00
      vertex   2.655648e+01 5.518635e+01 2.500000e+00
    endloop
  endfacet
  facet normal 0.000000e+00 0.000000e+00 -1.000000e+00
    outer loop
      vertex   2.655648e+01 5.518635e+01 2.500000e+00
      vertex   2.922314e+01 5.712184e+01 2.500000e+00
      vertex   2.922314e+01 5.518635e+01 2.500000e+00
    endloop
  endfacet
  facet normal 0.000000e+00 0.000000e+00 -1.000000e+00
    outer loop
      vertex   2.655648e+01 3.905732e+01 2.500000e+00
      vertex   2.655648e+01 5.518635e+01 2.500000e+00
      vertex   2.922314e+01 5.518635e+01 2.500000e+00
    endloop
  endfacet
  facet normal -1.000000e+00 -0.000000e+00 -0.000000e+00
    outer loop
      vertex   1.655648e+01 5.518635e+01 7.000000e+00
      vertex   1.655648e+01 5.518635e+01 2.500000e+00
      vertex   1.655648e+01 3.905732e+01 7.000000e+00
    endloop
  endfacet
  facet normal -1.000000e+00 -0.000000e+00 -0.000000e+00
    outer loop
      vertex   1.655648e+01 3.905732e+01 7.000000e+00
      vertex   1.655648e+01 5.518635e+01 2.500000e+00
      vertex   1.655648e+01 3.905732e+01 2.500000e+00
    endloop
  endfacet
  facet normal 1.000000e+00 -0.000000e+00 0.000000e+00
    outer loop
      vertex   3.655648e+01 3.905732e+01 7.000000e+00
      vertex   3.655648e+01 3.905732e+01 2.500000e+00
      vertex   3.655648e+01 5.518635e+01 7.000000e+00
    endloop
  endfacet
  facet normal 1.000000e+00 -0.000000e+00 0.000000e+00
    outer loop
      vertex   3.655648e+01 5.518635e+01 7.000000e+00
      vertex   3.655648e+01 3.905732e+01 2.500000e+00
      vertex   3.655648e+01 5.518635e+01 2.500000e+00
    endloop
  endfacet
endsolid
